<svg width="557" height="142" viewBox="0 0 557 142" fill="none" xmlns="http://www.w3.org/2000/svg">
<path d="M404.376 93H126.214C113.946 93 104 103.969 104 117.5C104 131.031 113.946 142 126.214 142H404.376C416.644 142 426.59 131.031 426.59 117.5C426.59 103.969 416.644 93 404.376 93Z" fill="#E1E1E1"/>
<path d="M360 93H437.885C443.75 93 449.375 95.5813 453.523 100.176C457.67 104.771 460 111.002 460 117.5C460 123.998 457.67 130.229 453.523 134.824C449.375 139.419 443.75 142 437.885 142H360V93Z" fill="#E05C6E"/>
<path d="M387.141 114.537C387.099 114.607 387.053 114.661 387.001 114.698C386.955 114.731 386.896 114.747 386.826 114.747C386.747 114.747 386.654 114.707 386.546 114.628C386.439 114.549 386.304 114.462 386.14 114.369C385.982 114.271 385.788 114.182 385.559 114.103C385.335 114.024 385.062 113.984 384.74 113.984C384.437 113.984 384.169 114.026 383.935 114.11C383.707 114.189 383.513 114.299 383.354 114.439C383.2 114.579 383.084 114.745 383.004 114.936C382.925 115.123 382.885 115.326 382.885 115.545C382.885 115.825 382.953 116.058 383.088 116.245C383.228 116.427 383.41 116.583 383.634 116.714C383.863 116.845 384.12 116.959 384.404 117.057C384.694 117.15 384.988 117.248 385.286 117.351C385.59 117.454 385.884 117.57 386.168 117.701C386.458 117.827 386.714 117.988 386.938 118.184C387.167 118.38 387.349 118.62 387.484 118.905C387.624 119.19 387.694 119.54 387.694 119.955C387.694 120.394 387.62 120.807 387.47 121.194C387.321 121.577 387.102 121.91 386.812 122.195C386.528 122.48 386.175 122.704 385.755 122.867C385.34 123.03 384.866 123.112 384.334 123.112C383.681 123.112 383.088 122.995 382.556 122.762C382.024 122.524 381.569 122.204 381.191 121.803L381.583 121.159C381.621 121.108 381.665 121.066 381.716 121.033C381.772 120.996 381.833 120.977 381.898 120.977C381.959 120.977 382.027 121.003 382.101 121.054C382.181 121.101 382.269 121.161 382.367 121.236C382.465 121.311 382.577 121.392 382.703 121.481C382.829 121.57 382.972 121.651 383.13 121.726C383.294 121.801 383.478 121.864 383.683 121.915C383.889 121.962 384.12 121.985 384.376 121.985C384.698 121.985 384.985 121.941 385.237 121.852C385.489 121.763 385.702 121.64 385.874 121.481C386.052 121.318 386.187 121.124 386.28 120.9C386.374 120.676 386.42 120.426 386.42 120.151C386.42 119.848 386.35 119.6 386.21 119.409C386.075 119.213 385.895 119.05 385.671 118.919C385.447 118.788 385.191 118.679 384.901 118.59C384.612 118.497 384.318 118.403 384.019 118.31C383.721 118.212 383.427 118.1 383.137 117.974C382.848 117.848 382.591 117.685 382.367 117.484C382.143 117.283 381.961 117.034 381.821 116.735C381.686 116.432 381.618 116.058 381.618 115.615C381.618 115.26 381.686 114.917 381.821 114.586C381.961 114.255 382.162 113.961 382.423 113.704C382.689 113.447 383.014 113.242 383.396 113.088C383.784 112.934 384.227 112.857 384.726 112.857C385.286 112.857 385.795 112.946 386.252 113.123C386.714 113.3 387.12 113.557 387.47 113.893L387.141 114.537ZM395.012 115.909V123H394.27C394.093 123 393.981 122.914 393.934 122.741L393.836 121.978C393.528 122.319 393.183 122.594 392.8 122.804C392.418 123.009 391.979 123.112 391.484 123.112C391.097 123.112 390.754 123.049 390.455 122.923C390.161 122.792 389.914 122.61 389.713 122.377C389.513 122.144 389.361 121.861 389.258 121.53C389.16 121.199 389.111 120.832 389.111 120.431V115.909H390.357V120.431C390.357 120.968 390.479 121.383 390.721 121.677C390.969 121.971 391.344 122.118 391.848 122.118C392.217 122.118 392.56 122.032 392.877 121.859C393.199 121.682 393.496 121.439 393.766 121.131V115.909H395.012ZM398.241 121.292C398.47 121.6 398.719 121.817 398.99 121.943C399.265 122.069 399.566 122.132 399.893 122.132C400.56 122.132 401.071 121.896 401.426 121.425C401.781 120.954 401.958 120.251 401.958 119.318C401.958 118.45 401.799 117.813 401.482 117.407C401.169 116.996 400.721 116.791 400.138 116.791C399.732 116.791 399.377 116.884 399.074 117.071C398.775 117.258 398.498 117.521 398.241 117.862V121.292ZM398.241 116.931C398.54 116.586 398.876 116.31 399.249 116.105C399.627 115.9 400.061 115.797 400.551 115.797C400.966 115.797 401.34 115.876 401.671 116.035C402.007 116.194 402.292 116.425 402.525 116.728C402.758 117.027 402.936 117.391 403.057 117.82C403.183 118.249 403.246 118.732 403.246 119.269C403.246 119.843 403.176 120.366 403.036 120.837C402.896 121.308 402.693 121.712 402.427 122.048C402.166 122.379 401.846 122.638 401.468 122.825C401.09 123.007 400.665 123.098 400.194 123.098C399.727 123.098 399.333 123.012 399.011 122.839C398.694 122.662 398.416 122.412 398.178 122.09L398.115 122.734C398.078 122.911 397.97 123 397.793 123H396.988V112.689H398.241V116.931ZM408.952 117.078C408.896 117.181 408.81 117.232 408.693 117.232C408.623 117.232 408.544 117.206 408.455 117.155C408.366 117.104 408.257 117.048 408.126 116.987C408 116.922 407.848 116.863 407.671 116.812C407.494 116.756 407.284 116.728 407.041 116.728C406.831 116.728 406.642 116.756 406.474 116.812C406.306 116.863 406.161 116.936 406.04 117.029C405.923 117.122 405.832 117.232 405.767 117.358C405.706 117.479 405.676 117.612 405.676 117.757C405.676 117.939 405.727 118.091 405.83 118.212C405.937 118.333 406.077 118.438 406.25 118.527C406.423 118.616 406.619 118.695 406.838 118.765C407.057 118.83 407.281 118.903 407.51 118.982C407.743 119.057 407.97 119.141 408.189 119.234C408.408 119.327 408.604 119.444 408.777 119.584C408.95 119.724 409.087 119.897 409.19 120.102C409.297 120.303 409.351 120.545 409.351 120.83C409.351 121.157 409.293 121.46 409.176 121.74C409.059 122.015 408.887 122.256 408.658 122.461C408.429 122.662 408.149 122.82 407.818 122.937C407.487 123.054 407.104 123.112 406.67 123.112C406.175 123.112 405.727 123.033 405.326 122.874C404.925 122.711 404.584 122.503 404.304 122.251L404.598 121.775C404.635 121.714 404.68 121.668 404.731 121.635C404.782 121.602 404.848 121.586 404.927 121.586C405.011 121.586 405.1 121.619 405.193 121.684C405.286 121.749 405.398 121.822 405.529 121.901C405.664 121.98 405.828 122.053 406.019 122.118C406.21 122.183 406.448 122.216 406.733 122.216C406.976 122.216 407.188 122.186 407.37 122.125C407.552 122.06 407.704 121.973 407.825 121.866C407.946 121.759 408.035 121.635 408.091 121.495C408.152 121.355 408.182 121.206 408.182 121.047C408.182 120.851 408.128 120.69 408.021 120.564C407.918 120.433 407.781 120.324 407.608 120.235C407.435 120.142 407.237 120.062 407.013 119.997C406.794 119.927 406.567 119.855 406.334 119.78C406.105 119.705 405.879 119.621 405.655 119.528C405.436 119.43 405.24 119.309 405.067 119.164C404.894 119.019 404.754 118.842 404.647 118.632C404.544 118.417 404.493 118.158 404.493 117.855C404.493 117.584 404.549 117.325 404.661 117.078C404.773 116.826 404.936 116.607 405.151 116.42C405.366 116.229 405.629 116.077 405.942 115.965C406.255 115.853 406.612 115.797 407.013 115.797C407.48 115.797 407.897 115.872 408.266 116.021C408.639 116.166 408.961 116.366 409.232 116.623L408.952 117.078ZM415.814 117.169C415.776 117.22 415.739 117.26 415.702 117.288C415.664 117.316 415.613 117.33 415.548 117.33C415.478 117.33 415.401 117.302 415.317 117.246C415.233 117.185 415.128 117.12 415.002 117.05C414.88 116.98 414.729 116.917 414.547 116.861C414.369 116.8 414.15 116.77 413.889 116.77C413.539 116.77 413.231 116.833 412.965 116.959C412.699 117.08 412.475 117.258 412.293 117.491C412.115 117.724 411.98 118.007 411.887 118.338C411.798 118.669 411.754 119.04 411.754 119.451C411.754 119.88 411.803 120.263 411.901 120.599C411.999 120.93 412.136 121.21 412.314 121.439C412.496 121.663 412.713 121.836 412.965 121.957C413.221 122.074 413.508 122.132 413.826 122.132C414.129 122.132 414.379 122.097 414.575 122.027C414.771 121.952 414.932 121.871 415.058 121.782C415.188 121.693 415.296 121.614 415.38 121.544C415.468 121.469 415.555 121.432 415.639 121.432C415.741 121.432 415.821 121.472 415.877 121.551L416.227 122.006C416.073 122.197 415.898 122.361 415.702 122.496C415.506 122.631 415.293 122.746 415.065 122.839C414.841 122.928 414.605 122.993 414.358 123.035C414.11 123.077 413.858 123.098 413.602 123.098C413.158 123.098 412.745 123.016 412.363 122.853C411.985 122.69 411.656 122.454 411.376 122.146C411.096 121.833 410.876 121.451 410.718 120.998C410.559 120.545 410.48 120.03 410.48 119.451C410.48 118.924 410.552 118.436 410.697 117.988C410.846 117.54 411.061 117.155 411.341 116.833C411.625 116.506 411.973 116.252 412.384 116.07C412.799 115.888 413.275 115.797 413.812 115.797C414.311 115.797 414.75 115.879 415.128 116.042C415.51 116.201 415.849 116.427 416.143 116.721L415.814 117.169ZM418.747 117.33C418.971 116.845 419.246 116.467 419.573 116.196C419.9 115.921 420.299 115.783 420.77 115.783C420.919 115.783 421.062 115.799 421.197 115.832C421.337 115.865 421.461 115.916 421.568 115.986L421.477 116.917C421.449 117.034 421.379 117.092 421.267 117.092C421.202 117.092 421.106 117.078 420.98 117.05C420.854 117.022 420.712 117.008 420.553 117.008C420.329 117.008 420.128 117.041 419.951 117.106C419.778 117.171 419.622 117.269 419.482 117.4C419.347 117.526 419.223 117.685 419.111 117.876C419.004 118.063 418.906 118.277 418.817 118.52V123H417.564V115.909H418.278C418.413 115.909 418.507 115.935 418.558 115.986C418.609 116.037 418.644 116.126 418.663 116.252L418.747 117.33ZM423.98 115.909V123H422.734V115.909H423.98ZM424.246 113.683C424.246 113.804 424.22 113.919 424.169 114.026C424.122 114.129 424.057 114.222 423.973 114.306C423.893 114.385 423.798 114.448 423.686 114.495C423.578 114.542 423.464 114.565 423.343 114.565C423.221 114.565 423.107 114.542 423 114.495C422.897 114.448 422.806 114.385 422.727 114.306C422.647 114.222 422.584 114.129 422.538 114.026C422.491 113.919 422.468 113.804 422.468 113.683C422.468 113.562 422.491 113.447 422.538 113.34C422.584 113.228 422.647 113.132 422.727 113.053C422.806 112.969 422.897 112.904 423 112.857C423.107 112.81 423.221 112.787 423.343 112.787C423.464 112.787 423.578 112.81 423.686 112.857C423.798 112.904 423.893 112.969 423.973 113.053C424.057 113.132 424.122 113.228 424.169 113.34C424.22 113.447 424.246 113.562 424.246 113.683ZM427.28 121.292C427.509 121.6 427.758 121.817 428.029 121.943C428.304 122.069 428.605 122.132 428.932 122.132C429.599 122.132 430.11 121.896 430.465 121.425C430.82 120.954 430.997 120.251 430.997 119.318C430.997 118.45 430.838 117.813 430.521 117.407C430.208 116.996 429.76 116.791 429.177 116.791C428.771 116.791 428.416 116.884 428.113 117.071C427.814 117.258 427.537 117.521 427.28 117.862V121.292ZM427.28 116.931C427.579 116.586 427.915 116.31 428.288 116.105C428.666 115.9 429.1 115.797 429.59 115.797C430.005 115.797 430.379 115.876 430.71 116.035C431.046 116.194 431.331 116.425 431.564 116.728C431.797 117.027 431.975 117.391 432.096 117.82C432.222 118.249 432.285 118.732 432.285 119.269C432.285 119.843 432.215 120.366 432.075 120.837C431.935 121.308 431.732 121.712 431.466 122.048C431.205 122.379 430.885 122.638 430.507 122.825C430.129 123.007 429.704 123.098 429.233 123.098C428.766 123.098 428.372 123.012 428.05 122.839C427.733 122.662 427.455 122.412 427.217 122.09L427.154 122.734C427.117 122.911 427.009 123 426.832 123H426.027V112.689H427.28V116.931ZM438.607 118.681C438.607 118.392 438.565 118.128 438.481 117.89C438.402 117.647 438.283 117.44 438.124 117.267C437.97 117.09 437.781 116.954 437.557 116.861C437.333 116.763 437.079 116.714 436.794 116.714C436.197 116.714 435.723 116.889 435.373 117.239C435.028 117.584 434.813 118.065 434.729 118.681H438.607ZM439.615 122.006C439.461 122.193 439.277 122.356 439.062 122.496C438.847 122.631 438.616 122.743 438.369 122.832C438.126 122.921 437.874 122.986 437.613 123.028C437.352 123.075 437.093 123.098 436.836 123.098C436.346 123.098 435.893 123.016 435.478 122.853C435.067 122.685 434.71 122.442 434.407 122.125C434.108 121.803 433.875 121.406 433.707 120.935C433.539 120.464 433.455 119.922 433.455 119.311C433.455 118.816 433.53 118.354 433.679 117.925C433.833 117.496 434.052 117.125 434.337 116.812C434.622 116.495 434.969 116.247 435.38 116.07C435.791 115.888 436.253 115.797 436.766 115.797C437.191 115.797 437.583 115.869 437.942 116.014C438.306 116.154 438.619 116.359 438.88 116.63C439.146 116.896 439.354 117.227 439.503 117.624C439.652 118.016 439.727 118.464 439.727 118.968C439.727 119.164 439.706 119.295 439.664 119.36C439.622 119.425 439.543 119.458 439.426 119.458H434.687C434.701 119.906 434.762 120.296 434.869 120.627C434.981 120.958 435.135 121.236 435.331 121.46C435.527 121.679 435.76 121.845 436.031 121.957C436.302 122.064 436.605 122.118 436.941 122.118C437.254 122.118 437.522 122.083 437.746 122.013C437.975 121.938 438.171 121.859 438.334 121.775C438.497 121.691 438.633 121.614 438.74 121.544C438.852 121.469 438.948 121.432 439.027 121.432C439.13 121.432 439.209 121.472 439.265 121.551L439.615 122.006Z" fill="white"/>
<path opacity="0.671" d="M133.469 121.894L133.462 123H127.281V112.969H133.462V114.075H128.639V117.407H132.545V118.471H128.639V121.894H133.469ZM136.052 116.938C136.206 116.765 136.369 116.609 136.542 116.469C136.714 116.329 136.896 116.21 137.088 116.112C137.284 116.009 137.489 115.932 137.704 115.881C137.923 115.825 138.159 115.797 138.411 115.797C138.798 115.797 139.139 115.862 139.433 115.993C139.731 116.119 139.979 116.301 140.175 116.539C140.375 116.772 140.527 117.055 140.63 117.386C140.732 117.717 140.784 118.084 140.784 118.485V123H139.531V118.485C139.531 117.948 139.407 117.533 139.16 117.239C138.917 116.94 138.546 116.791 138.047 116.791C137.678 116.791 137.333 116.88 137.011 117.057C136.693 117.234 136.399 117.475 136.129 117.778V123H134.876V115.909H135.625C135.802 115.909 135.912 115.995 135.954 116.168L136.052 116.938ZM144.764 123.112C144.204 123.112 143.772 122.956 143.469 122.643C143.17 122.33 143.021 121.88 143.021 121.292V116.952H142.167C142.092 116.952 142.029 116.931 141.978 116.889C141.926 116.842 141.901 116.772 141.901 116.679V116.182L143.063 116.035L143.35 113.844C143.364 113.774 143.394 113.718 143.441 113.676C143.492 113.629 143.557 113.606 143.637 113.606H144.267V116.049H146.318V116.952H144.267V121.208C144.267 121.507 144.339 121.728 144.484 121.873C144.628 122.018 144.815 122.09 145.044 122.09C145.174 122.09 145.286 122.074 145.38 122.041C145.478 122.004 145.562 121.964 145.632 121.922C145.702 121.88 145.76 121.843 145.807 121.81C145.858 121.773 145.902 121.754 145.94 121.754C146.005 121.754 146.063 121.794 146.115 121.873L146.479 122.468C146.264 122.669 146.005 122.827 145.702 122.944C145.398 123.056 145.086 123.112 144.764 123.112ZM152.309 118.681C152.309 118.392 152.267 118.128 152.183 117.89C152.104 117.647 151.985 117.44 151.826 117.267C151.672 117.09 151.483 116.954 151.259 116.861C151.035 116.763 150.781 116.714 150.496 116.714C149.899 116.714 149.425 116.889 149.075 117.239C148.73 117.584 148.515 118.065 148.431 118.681H152.309ZM153.317 122.006C153.163 122.193 152.979 122.356 152.764 122.496C152.55 122.631 152.319 122.743 152.071 122.832C151.829 122.921 151.577 122.986 151.315 123.028C151.054 123.075 150.795 123.098 150.538 123.098C150.048 123.098 149.596 123.016 149.18 122.853C148.77 122.685 148.413 122.442 148.109 122.125C147.811 121.803 147.577 121.406 147.409 120.935C147.241 120.464 147.157 119.922 147.157 119.311C147.157 118.816 147.232 118.354 147.381 117.925C147.535 117.496 147.755 117.125 148.039 116.812C148.324 116.495 148.672 116.247 149.082 116.07C149.493 115.888 149.955 115.797 150.468 115.797C150.893 115.797 151.285 115.869 151.644 116.014C152.008 116.154 152.321 116.359 152.582 116.63C152.848 116.896 153.056 117.227 153.205 117.624C153.355 118.016 153.429 118.464 153.429 118.968C153.429 119.164 153.408 119.295 153.366 119.36C153.324 119.425 153.245 119.458 153.128 119.458H148.389C148.403 119.906 148.464 120.296 148.571 120.627C148.683 120.958 148.837 121.236 149.033 121.46C149.229 121.679 149.463 121.845 149.733 121.957C150.004 122.064 150.307 122.118 150.643 122.118C150.956 122.118 151.224 122.083 151.448 122.013C151.677 121.938 151.873 121.859 152.036 121.775C152.2 121.691 152.335 121.614 152.442 121.544C152.554 121.469 152.65 121.432 152.729 121.432C152.832 121.432 152.911 121.472 152.967 121.551L153.317 122.006ZM156.143 117.33C156.367 116.845 156.642 116.467 156.969 116.196C157.295 115.921 157.694 115.783 158.166 115.783C158.315 115.783 158.457 115.799 158.593 115.832C158.733 115.865 158.856 115.916 158.964 115.986L158.873 116.917C158.845 117.034 158.775 117.092 158.663 117.092C158.597 117.092 158.502 117.078 158.376 117.05C158.25 117.022 158.107 117.008 157.949 117.008C157.725 117.008 157.524 117.041 157.347 117.106C157.174 117.171 157.018 117.269 156.878 117.4C156.742 117.526 156.619 117.685 156.507 117.876C156.399 118.063 156.301 118.277 156.213 118.52V123H154.96V115.909H155.674C155.809 115.909 155.902 115.935 155.954 115.986C156.005 116.037 156.04 116.126 156.059 116.252L156.143 117.33ZM166.854 119.003V123H165.496V119.003L161.821 112.969H163.011C163.132 112.969 163.228 112.999 163.298 113.06C163.368 113.116 163.428 113.191 163.48 113.284L165.776 117.183C165.86 117.346 165.937 117.5 166.007 117.645C166.077 117.785 166.137 117.927 166.189 118.072C166.24 117.927 166.298 117.785 166.364 117.645C166.429 117.5 166.501 117.346 166.581 117.183L168.87 113.284C168.912 113.205 168.97 113.132 169.045 113.067C169.119 113.002 169.215 112.969 169.332 112.969H170.529L166.854 119.003ZM172.988 115.797C173.506 115.797 173.972 115.883 174.388 116.056C174.803 116.229 175.158 116.474 175.452 116.791C175.746 117.108 175.97 117.493 176.124 117.946C176.282 118.394 176.362 118.896 176.362 119.451C176.362 120.011 176.282 120.515 176.124 120.963C175.97 121.411 175.746 121.794 175.452 122.111C175.158 122.428 174.803 122.673 174.388 122.846C173.972 123.014 173.506 123.098 172.988 123.098C172.465 123.098 171.994 123.014 171.574 122.846C171.158 122.673 170.804 122.428 170.51 122.111C170.216 121.794 169.989 121.411 169.831 120.963C169.677 120.515 169.6 120.011 169.6 119.451C169.6 118.896 169.677 118.394 169.831 117.946C169.989 117.493 170.216 117.108 170.51 116.791C170.804 116.474 171.158 116.229 171.574 116.056C171.994 115.883 172.465 115.797 172.988 115.797ZM172.988 122.125C173.688 122.125 174.21 121.892 174.556 121.425C174.901 120.954 175.074 120.298 175.074 119.458C175.074 118.613 174.901 117.955 174.556 117.484C174.21 117.013 173.688 116.777 172.988 116.777C172.633 116.777 172.323 116.838 172.057 116.959C171.795 117.08 171.576 117.255 171.399 117.484C171.226 117.713 171.095 117.995 171.007 118.331C170.923 118.662 170.881 119.038 170.881 119.458C170.881 120.298 171.053 120.954 171.399 121.425C171.749 121.892 172.278 122.125 172.988 122.125ZM183.773 115.909V123H183.031C182.854 123 182.742 122.914 182.695 122.741L182.597 121.978C182.289 122.319 181.944 122.594 181.561 122.804C181.178 123.009 180.74 123.112 180.245 123.112C179.858 123.112 179.515 123.049 179.216 122.923C178.922 122.792 178.675 122.61 178.474 122.377C178.273 122.144 178.122 121.861 178.019 121.53C177.921 121.199 177.872 120.832 177.872 120.431V115.909H179.118V120.431C179.118 120.968 179.239 121.383 179.482 121.677C179.729 121.971 180.105 122.118 180.609 122.118C180.978 122.118 181.321 122.032 181.638 121.859C181.96 121.682 182.256 121.439 182.527 121.131V115.909H183.773ZM186.932 117.33C187.156 116.845 187.431 116.467 187.758 116.196C188.084 115.921 188.483 115.783 188.955 115.783C189.104 115.783 189.246 115.799 189.382 115.832C189.522 115.865 189.645 115.916 189.753 115.986L189.662 116.917C189.634 117.034 189.564 117.092 189.452 117.092C189.386 117.092 189.291 117.078 189.165 117.05C189.039 117.022 188.896 117.008 188.738 117.008C188.514 117.008 188.313 117.041 188.136 117.106C187.963 117.171 187.807 117.269 187.667 117.4C187.531 117.526 187.408 117.685 187.296 117.876C187.188 118.063 187.09 118.277 187.002 118.52V123H185.749V115.909H186.463C186.598 115.909 186.691 115.935 186.743 115.986C186.794 116.037 186.829 116.126 186.848 116.252L186.932 117.33ZM200.612 121.894L200.605 123H194.424V112.969H200.605V114.075H195.782V117.407H199.688V118.471H195.782V121.894H200.612ZM202.018 123V115.909H202.767C202.945 115.909 203.054 115.995 203.096 116.168L203.187 116.896C203.449 116.574 203.743 116.31 204.069 116.105C204.396 115.9 204.774 115.797 205.203 115.797C205.679 115.797 206.064 115.93 206.358 116.196C206.657 116.462 206.872 116.821 207.002 117.274C207.105 117.017 207.236 116.796 207.394 116.609C207.558 116.422 207.74 116.268 207.94 116.147C208.141 116.026 208.353 115.937 208.577 115.881C208.806 115.825 209.037 115.797 209.27 115.797C209.644 115.797 209.975 115.858 210.264 115.979C210.558 116.096 210.806 116.268 211.006 116.497C211.212 116.726 211.368 117.008 211.475 117.344C211.583 117.675 211.636 118.056 211.636 118.485V123H210.383V118.485C210.383 117.93 210.262 117.51 210.019 117.225C209.777 116.936 209.427 116.791 208.969 116.791C208.764 116.791 208.568 116.828 208.381 116.903C208.199 116.973 208.038 117.078 207.898 117.218C207.758 117.358 207.646 117.535 207.562 117.75C207.483 117.96 207.443 118.205 207.443 118.485V123H206.19V118.485C206.19 117.916 206.076 117.491 205.847 117.211C205.619 116.931 205.285 116.791 204.846 116.791C204.538 116.791 204.254 116.875 203.992 117.043C203.731 117.206 203.491 117.43 203.271 117.715V123H202.018ZM217.373 119.808C216.799 119.827 216.309 119.873 215.903 119.948C215.502 120.018 215.173 120.111 214.916 120.228C214.664 120.345 214.48 120.482 214.363 120.641C214.251 120.8 214.195 120.977 214.195 121.173C214.195 121.36 214.225 121.521 214.286 121.656C214.347 121.791 214.428 121.903 214.531 121.992C214.638 122.076 214.762 122.139 214.902 122.181C215.047 122.218 215.201 122.237 215.364 122.237C215.583 122.237 215.784 122.216 215.966 122.174C216.148 122.127 216.318 122.062 216.477 121.978C216.64 121.894 216.794 121.794 216.939 121.677C217.088 121.56 217.233 121.427 217.373 121.278V119.808ZM213.348 116.91C213.74 116.532 214.162 116.25 214.615 116.063C215.068 115.876 215.569 115.783 216.12 115.783C216.517 115.783 216.869 115.848 217.177 115.979C217.485 116.11 217.744 116.292 217.954 116.525C218.164 116.758 218.323 117.041 218.43 117.372C218.537 117.703 218.591 118.067 218.591 118.464V123H218.038C217.917 123 217.823 122.981 217.758 122.944C217.693 122.902 217.641 122.823 217.604 122.706L217.464 122.034C217.277 122.207 217.095 122.361 216.918 122.496C216.741 122.627 216.554 122.739 216.358 122.832C216.162 122.921 215.952 122.988 215.728 123.035C215.509 123.086 215.264 123.112 214.993 123.112C214.718 123.112 214.459 123.075 214.216 123C213.973 122.921 213.761 122.804 213.579 122.65C213.402 122.496 213.259 122.302 213.152 122.069C213.049 121.831 212.998 121.551 212.998 121.229C212.998 120.949 213.075 120.681 213.229 120.424C213.383 120.163 213.633 119.932 213.978 119.731C214.323 119.53 214.774 119.367 215.329 119.241C215.884 119.11 216.566 119.036 217.373 119.017V118.464C217.373 117.913 217.254 117.498 217.016 117.218C216.778 116.933 216.43 116.791 215.973 116.791C215.665 116.791 215.406 116.831 215.196 116.91C214.991 116.985 214.811 117.071 214.657 117.169C214.508 117.262 214.377 117.349 214.265 117.428C214.158 117.503 214.05 117.54 213.943 117.54C213.859 117.54 213.787 117.519 213.726 117.477C213.665 117.43 213.614 117.374 213.572 117.309L213.348 116.91ZM221.805 115.909V123H220.559V115.909H221.805ZM222.071 113.683C222.071 113.804 222.045 113.919 221.994 114.026C221.947 114.129 221.882 114.222 221.798 114.306C221.719 114.385 221.623 114.448 221.511 114.495C221.404 114.542 221.289 114.565 221.168 114.565C221.047 114.565 220.932 114.542 220.825 114.495C220.722 114.448 220.631 114.385 220.552 114.306C220.473 114.222 220.41 114.129 220.363 114.026C220.316 113.919 220.293 113.804 220.293 113.683C220.293 113.562 220.316 113.447 220.363 113.34C220.41 113.228 220.473 113.132 220.552 113.053C220.631 112.969 220.722 112.904 220.825 112.857C220.932 112.81 221.047 112.787 221.168 112.787C221.289 112.787 221.404 112.81 221.511 112.857C221.623 112.904 221.719 112.969 221.798 113.053C221.882 113.132 221.947 113.228 221.994 113.34C222.045 113.447 222.071 113.562 222.071 113.683ZM225.14 112.689V123H223.894V112.689H225.14Z" fill="#222224"/>
<path d="M222.77 14.804C222.674 14.972 222.57 15.096 222.458 15.176C222.354 15.248 222.222 15.284 222.062 15.284C221.894 15.284 221.71 15.224 221.51 15.104C221.318 14.976 221.086 14.836 220.814 14.684C220.542 14.532 220.222 14.396 219.854 14.276C219.494 14.148 219.066 14.084 218.57 14.084C218.122 14.084 217.73 14.14 217.394 14.252C217.058 14.356 216.774 14.504 216.542 14.696C216.318 14.888 216.15 15.12 216.038 15.392C215.926 15.656 215.87 15.948 215.87 16.268C215.87 16.676 215.982 17.016 216.206 17.288C216.438 17.56 216.742 17.792 217.118 17.984C217.494 18.176 217.922 18.348 218.402 18.5C218.882 18.652 219.374 18.816 219.878 18.992C220.382 19.16 220.874 19.36 221.354 19.592C221.834 19.816 222.262 20.104 222.638 20.456C223.014 20.8 223.314 21.224 223.538 21.728C223.77 22.232 223.886 22.844 223.886 23.564C223.886 24.348 223.75 25.084 223.478 25.772C223.214 26.452 222.822 27.048 222.302 27.56C221.79 28.064 221.162 28.464 220.418 28.76C219.674 29.048 218.822 29.192 217.862 29.192C217.31 29.192 216.766 29.136 216.23 29.024C215.694 28.92 215.178 28.768 214.682 28.568C214.194 28.368 213.734 28.128 213.302 27.848C212.87 27.568 212.486 27.256 212.15 26.912L213.098 25.364C213.178 25.252 213.282 25.16 213.41 25.088C213.538 25.008 213.674 24.968 213.818 24.968C214.018 24.968 214.234 25.052 214.466 25.22C214.698 25.38 214.974 25.56 215.294 25.76C215.614 25.96 215.986 26.144 216.41 26.312C216.842 26.472 217.358 26.552 217.958 26.552C218.878 26.552 219.59 26.336 220.094 25.904C220.598 25.464 220.85 24.836 220.85 24.02C220.85 23.564 220.734 23.192 220.502 22.904C220.278 22.616 219.978 22.376 219.602 22.184C219.226 21.984 218.798 21.816 218.318 21.68C217.838 21.544 217.35 21.396 216.854 21.236C216.358 21.076 215.87 20.884 215.39 20.66C214.91 20.436 214.482 20.144 214.106 19.784C213.73 19.424 213.426 18.976 213.194 18.44C212.97 17.896 212.858 17.228 212.858 16.436C212.858 15.804 212.982 15.188 213.23 14.588C213.486 13.988 213.854 13.456 214.334 12.992C214.814 12.528 215.406 12.156 216.11 11.876C216.814 11.596 217.622 11.456 218.534 11.456C219.558 11.456 220.502 11.616 221.366 11.936C222.23 12.256 222.966 12.704 223.574 13.28L222.77 14.804ZM233.686 26.396C234.31 26.396 234.866 26.292 235.354 26.084C235.85 25.876 236.266 25.584 236.602 25.208C236.938 24.832 237.194 24.376 237.37 23.84C237.554 23.304 237.646 22.704 237.646 22.04V11.648H240.874V22.04C240.874 23.072 240.706 24.028 240.37 24.908C240.042 25.78 239.566 26.536 238.942 27.176C238.326 27.808 237.574 28.304 236.686 28.664C235.798 29.016 234.798 29.192 233.686 29.192C232.566 29.192 231.562 29.016 230.674 28.664C229.786 28.304 229.03 27.808 228.406 27.176C227.79 26.536 227.314 25.78 226.978 24.908C226.65 24.028 226.486 23.072 226.486 22.04V11.648H229.714V22.028C229.714 22.692 229.802 23.292 229.978 23.828C230.162 24.364 230.422 24.824 230.758 25.208C231.102 25.584 231.518 25.876 232.006 26.084C232.502 26.292 233.062 26.396 233.686 26.396ZM251.006 26.48C251.606 26.48 252.11 26.408 252.518 26.264C252.926 26.12 253.25 25.928 253.49 25.688C253.738 25.448 253.914 25.168 254.018 24.848C254.13 24.528 254.186 24.188 254.186 23.828C254.186 23.452 254.126 23.116 254.006 22.82C253.886 22.516 253.698 22.26 253.442 22.052C253.186 21.836 252.854 21.672 252.446 21.56C252.046 21.448 251.562 21.392 250.994 21.392H247.742V26.48H251.006ZM247.742 14.144V19.16H250.31C251.414 19.16 252.246 18.96 252.806 18.56C253.374 18.16 253.658 17.524 253.658 16.652C253.658 15.748 253.402 15.104 252.89 14.72C252.378 14.336 251.578 14.144 250.49 14.144H247.742ZM250.49 11.648C251.626 11.648 252.598 11.756 253.406 11.972C254.214 12.188 254.874 12.496 255.386 12.896C255.906 13.296 256.286 13.78 256.526 14.348C256.766 14.916 256.886 15.556 256.886 16.268C256.886 16.676 256.826 17.068 256.706 17.444C256.586 17.812 256.398 18.16 256.142 18.488C255.894 18.808 255.574 19.1 255.182 19.364C254.798 19.628 254.338 19.852 253.802 20.036C256.186 20.572 257.378 21.86 257.378 23.9C257.378 24.636 257.238 25.316 256.958 25.94C256.678 26.564 256.27 27.104 255.734 27.56C255.198 28.008 254.538 28.36 253.754 28.616C252.97 28.872 252.074 29 251.066 29H244.514V11.648H250.49ZM269.551 14.804C269.455 14.972 269.351 15.096 269.239 15.176C269.135 15.248 269.003 15.284 268.843 15.284C268.675 15.284 268.491 15.224 268.291 15.104C268.099 14.976 267.867 14.836 267.595 14.684C267.323 14.532 267.003 14.396 266.635 14.276C266.275 14.148 265.847 14.084 265.351 14.084C264.903 14.084 264.511 14.14 264.175 14.252C263.839 14.356 263.555 14.504 263.323 14.696C263.099 14.888 262.931 15.12 262.819 15.392C262.707 15.656 262.651 15.948 262.651 16.268C262.651 16.676 262.763 17.016 262.987 17.288C263.219 17.56 263.523 17.792 263.899 17.984C264.275 18.176 264.703 18.348 265.183 18.5C265.663 18.652 266.155 18.816 266.659 18.992C267.163 19.16 267.655 19.36 268.135 19.592C268.615 19.816 269.043 20.104 269.419 20.456C269.795 20.8 270.095 21.224 270.319 21.728C270.551 22.232 270.667 22.844 270.667 23.564C270.667 24.348 270.531 25.084 270.259 25.772C269.995 26.452 269.603 27.048 269.083 27.56C268.571 28.064 267.943 28.464 267.199 28.76C266.455 29.048 265.603 29.192 264.643 29.192C264.091 29.192 263.547 29.136 263.011 29.024C262.475 28.92 261.959 28.768 261.463 28.568C260.975 28.368 260.515 28.128 260.083 27.848C259.651 27.568 259.267 27.256 258.931 26.912L259.879 25.364C259.959 25.252 260.063 25.16 260.191 25.088C260.319 25.008 260.455 24.968 260.599 24.968C260.799 24.968 261.015 25.052 261.247 25.22C261.479 25.38 261.755 25.56 262.075 25.76C262.395 25.96 262.767 26.144 263.191 26.312C263.623 26.472 264.139 26.552 264.739 26.552C265.659 26.552 266.371 26.336 266.875 25.904C267.379 25.464 267.631 24.836 267.631 24.02C267.631 23.564 267.515 23.192 267.283 22.904C267.059 22.616 266.759 22.376 266.383 22.184C266.007 21.984 265.579 21.816 265.099 21.68C264.619 21.544 264.131 21.396 263.635 21.236C263.139 21.076 262.651 20.884 262.171 20.66C261.691 20.436 261.263 20.144 260.887 19.784C260.511 19.424 260.207 18.976 259.975 18.44C259.751 17.896 259.639 17.228 259.639 16.436C259.639 15.804 259.763 15.188 260.011 14.588C260.267 13.988 260.635 13.456 261.115 12.992C261.595 12.528 262.187 12.156 262.891 11.876C263.595 11.596 264.403 11.456 265.315 11.456C266.339 11.456 267.283 11.616 268.147 11.936C269.011 12.256 269.747 12.704 270.355 13.28L269.551 14.804ZM285.399 24.908C285.575 24.908 285.731 24.976 285.867 25.112L287.139 26.492C286.435 27.364 285.567 28.032 284.535 28.496C283.511 28.96 282.279 29.192 280.839 29.192C279.551 29.192 278.391 28.972 277.359 28.532C276.335 28.092 275.459 27.48 274.731 26.696C274.003 25.912 273.443 24.976 273.051 23.888C272.667 22.8 272.475 21.612 272.475 20.324C272.475 19.02 272.683 17.828 273.099 16.748C273.515 15.66 274.099 14.724 274.851 13.94C275.611 13.156 276.515 12.548 277.563 12.116C278.611 11.676 279.771 11.456 281.043 11.456C282.307 11.456 283.427 11.664 284.403 12.08C285.387 12.496 286.223 13.04 286.911 13.712L285.831 15.212C285.767 15.308 285.683 15.392 285.579 15.464C285.483 15.536 285.347 15.572 285.171 15.572C285.051 15.572 284.927 15.54 284.799 15.476C284.671 15.404 284.531 15.32 284.379 15.224C284.227 15.12 284.051 15.008 283.851 14.888C283.651 14.768 283.419 14.66 283.155 14.564C282.891 14.46 282.583 14.376 282.231 14.312C281.887 14.24 281.487 14.204 281.031 14.204C280.255 14.204 279.543 14.344 278.895 14.624C278.255 14.896 277.703 15.296 277.239 15.824C276.775 16.344 276.415 16.984 276.159 17.744C275.903 18.496 275.775 19.356 275.775 20.324C275.775 21.3 275.911 22.168 276.183 22.928C276.463 23.688 276.839 24.328 277.311 24.848C277.783 25.368 278.339 25.768 278.979 26.048C279.619 26.32 280.307 26.456 281.043 26.456C281.483 26.456 281.879 26.432 282.231 26.384C282.591 26.336 282.919 26.26 283.215 26.156C283.519 26.052 283.803 25.92 284.067 25.76C284.339 25.592 284.607 25.388 284.871 25.148C284.951 25.076 285.035 25.02 285.123 24.98C285.211 24.932 285.303 24.908 285.399 24.908ZM294.594 19.904C295.202 19.904 295.73 19.828 296.178 19.676C296.634 19.524 297.006 19.316 297.294 19.052C297.59 18.78 297.81 18.46 297.954 18.092C298.098 17.724 298.17 17.32 298.17 16.88C298.17 16 297.878 15.324 297.294 14.852C296.718 14.38 295.834 14.144 294.642 14.144H292.578V19.904H294.594ZM302.898 29H299.982C299.43 29 299.03 28.784 298.782 28.352L295.134 22.796C294.998 22.588 294.846 22.44 294.678 22.352C294.518 22.264 294.278 22.22 293.958 22.22H292.578V29H289.35V11.648H294.642C295.818 11.648 296.826 11.772 297.666 12.02C298.514 12.26 299.206 12.6 299.742 13.04C300.286 13.48 300.686 14.008 300.942 14.624C301.198 15.232 301.326 15.904 301.326 16.64C301.326 17.224 301.238 17.776 301.062 18.296C300.894 18.816 300.646 19.288 300.318 19.712C299.998 20.136 299.598 20.508 299.118 20.828C298.646 21.148 298.106 21.4 297.498 21.584C297.706 21.704 297.898 21.848 298.074 22.016C298.25 22.176 298.41 22.368 298.554 22.592L302.898 29ZM308.012 29H304.772V11.648H308.012V29ZM318.389 26.48C318.989 26.48 319.493 26.408 319.901 26.264C320.309 26.12 320.633 25.928 320.873 25.688C321.121 25.448 321.297 25.168 321.401 24.848C321.513 24.528 321.569 24.188 321.569 23.828C321.569 23.452 321.509 23.116 321.389 22.82C321.269 22.516 321.081 22.26 320.825 22.052C320.569 21.836 320.237 21.672 319.829 21.56C319.429 21.448 318.945 21.392 318.377 21.392H315.125V26.48H318.389ZM315.125 14.144V19.16H317.693C318.797 19.16 319.629 18.96 320.189 18.56C320.757 18.16 321.041 17.524 321.041 16.652C321.041 15.748 320.785 15.104 320.273 14.72C319.761 14.336 318.961 14.144 317.873 14.144H315.125ZM317.873 11.648C319.009 11.648 319.981 11.756 320.789 11.972C321.597 12.188 322.257 12.496 322.769 12.896C323.289 13.296 323.669 13.78 323.909 14.348C324.149 14.916 324.269 15.556 324.269 16.268C324.269 16.676 324.209 17.068 324.089 17.444C323.969 17.812 323.781 18.16 323.525 18.488C323.277 18.808 322.957 19.1 322.565 19.364C322.181 19.628 321.721 19.852 321.185 20.036C323.569 20.572 324.761 21.86 324.761 23.9C324.761 24.636 324.621 25.316 324.341 25.94C324.061 26.564 323.653 27.104 323.117 27.56C322.581 28.008 321.921 28.36 321.137 28.616C320.353 28.872 319.457 29 318.449 29H311.897V11.648H317.873ZM330.934 14.216V19.028H337.006V21.512H330.934V26.42H338.638V29H327.694V11.648H338.638V14.216H330.934ZM107.764 47.525V52.034H113.065V53.456H107.764V59H106.018V46.103H113.965V47.525H107.764ZM127.989 52.556C127.989 53.522 127.836 54.41 127.53 55.22C127.224 56.024 126.792 56.717 126.234 57.299C125.676 57.881 125.004 58.334 124.218 58.658C123.438 58.976 122.574 59.135 121.626 59.135C120.678 59.135 119.814 58.976 119.034 58.658C118.254 58.334 117.585 57.881 117.027 57.299C116.469 56.717 116.037 56.024 115.731 55.22C115.425 54.41 115.272 53.522 115.272 52.556C115.272 51.59 115.425 50.705 115.731 49.901C116.037 49.091 116.469 48.395 117.027 47.813C117.585 47.225 118.254 46.769 119.034 46.445C119.814 46.121 120.678 45.959 121.626 45.959C122.574 45.959 123.438 46.121 124.218 46.445C125.004 46.769 125.676 47.225 126.234 47.813C126.792 48.395 127.224 49.091 127.53 49.901C127.836 50.705 127.989 51.59 127.989 52.556ZM126.198 52.556C126.198 51.764 126.09 51.053 125.874 50.423C125.658 49.793 125.352 49.262 124.956 48.83C124.56 48.392 124.08 48.056 123.516 47.822C122.952 47.588 122.322 47.471 121.626 47.471C120.936 47.471 120.309 47.588 119.745 47.822C119.181 48.056 118.698 48.392 118.296 48.83C117.9 49.262 117.594 49.793 117.378 50.423C117.162 51.053 117.054 51.764 117.054 52.556C117.054 53.348 117.162 54.059 117.378 54.689C117.594 55.313 117.9 55.844 118.296 56.282C118.698 56.714 119.181 57.047 119.745 57.281C120.309 57.509 120.936 57.623 121.626 57.623C122.322 57.623 122.952 57.509 123.516 57.281C124.08 57.047 124.56 56.714 124.956 56.282C125.352 55.844 125.658 55.313 125.874 54.689C126.09 54.059 126.198 53.348 126.198 52.556ZM134.06 52.349C134.564 52.349 135.008 52.289 135.392 52.169C135.782 52.043 136.106 51.869 136.364 51.647C136.628 51.419 136.826 51.149 136.958 50.837C137.09 50.525 137.156 50.18 137.156 49.802C137.156 49.034 136.904 48.455 136.4 48.065C135.896 47.675 135.14 47.48 134.132 47.48H132.224V52.349H134.06ZM140.018 59H138.47C138.152 59 137.918 58.877 137.768 58.631L134.42 54.023C134.318 53.879 134.207 53.777 134.087 53.717C133.973 53.651 133.793 53.618 133.547 53.618H132.224V59H130.487V46.103H134.132C134.948 46.103 135.653 46.187 136.247 46.355C136.841 46.517 137.33 46.754 137.714 47.066C138.104 47.378 138.392 47.756 138.578 48.2C138.764 48.638 138.857 49.13 138.857 49.676C138.857 50.132 138.785 50.558 138.641 50.954C138.497 51.35 138.287 51.707 138.011 52.025C137.741 52.337 137.408 52.604 137.012 52.826C136.622 53.048 136.178 53.216 135.68 53.33C135.902 53.456 136.094 53.639 136.256 53.879L140.018 59ZM158.293 52.556C158.293 53.522 158.14 54.41 157.834 55.22C157.528 56.024 157.096 56.717 156.538 57.299C155.98 57.881 155.308 58.334 154.522 58.658C153.742 58.976 152.878 59.135 151.93 59.135C150.982 59.135 150.118 58.976 149.338 58.658C148.558 58.334 147.889 57.881 147.331 57.299C146.773 56.717 146.341 56.024 146.035 55.22C145.729 54.41 145.576 53.522 145.576 52.556C145.576 51.59 145.729 50.705 146.035 49.901C146.341 49.091 146.773 48.395 147.331 47.813C147.889 47.225 148.558 46.769 149.338 46.445C150.118 46.121 150.982 45.959 151.93 45.959C152.878 45.959 153.742 46.121 154.522 46.445C155.308 46.769 155.98 47.225 156.538 47.813C157.096 48.395 157.528 49.091 157.834 49.901C158.14 50.705 158.293 51.59 158.293 52.556ZM156.502 52.556C156.502 51.764 156.394 51.053 156.178 50.423C155.962 49.793 155.656 49.262 155.26 48.83C154.864 48.392 154.384 48.056 153.82 47.822C153.256 47.588 152.626 47.471 151.93 47.471C151.24 47.471 150.613 47.588 150.049 47.822C149.485 48.056 149.002 48.392 148.6 48.83C148.204 49.262 147.898 49.793 147.682 50.423C147.466 51.053 147.358 51.764 147.358 52.556C147.358 53.348 147.466 54.059 147.682 54.689C147.898 55.313 148.204 55.844 148.6 56.282C149.002 56.714 149.485 57.047 150.049 57.281C150.613 57.509 151.24 57.623 151.93 57.623C152.626 57.623 153.256 57.509 153.82 57.281C154.384 57.047 154.864 56.714 155.26 56.282C155.656 55.844 155.962 55.313 156.178 54.689C156.394 54.059 156.502 53.348 156.502 52.556ZM165.769 57.614C166.303 57.614 166.78 57.524 167.2 57.344C167.62 57.164 167.974 56.912 168.262 56.588C168.556 56.264 168.778 55.877 168.928 55.427C169.084 54.977 169.162 54.482 169.162 53.942V46.103H170.899V53.942C170.899 54.686 170.779 55.376 170.539 56.012C170.305 56.648 169.966 57.2 169.522 57.668C169.084 58.13 168.547 58.493 167.911 58.757C167.275 59.021 166.561 59.153 165.769 59.153C164.977 59.153 164.263 59.021 163.627 58.757C162.991 58.493 162.451 58.13 162.007 57.668C161.563 57.2 161.221 56.648 160.981 56.012C160.747 55.376 160.63 54.686 160.63 53.942V46.103H162.367V53.933C162.367 54.473 162.442 54.968 162.592 55.418C162.748 55.868 162.97 56.255 163.258 56.579C163.552 56.903 163.909 57.158 164.329 57.344C164.755 57.524 165.235 57.614 165.769 57.614ZM177.601 52.349C178.105 52.349 178.549 52.289 178.933 52.169C179.323 52.043 179.647 51.869 179.905 51.647C180.169 51.419 180.367 51.149 180.499 50.837C180.631 50.525 180.697 50.18 180.697 49.802C180.697 49.034 180.445 48.455 179.941 48.065C179.437 47.675 178.681 47.48 177.673 47.48H175.765V52.349H177.601ZM183.559 59H182.011C181.693 59 181.459 58.877 181.309 58.631L177.961 54.023C177.859 53.879 177.748 53.777 177.628 53.717C177.514 53.651 177.334 53.618 177.088 53.618H175.765V59H174.028V46.103H177.673C178.489 46.103 179.194 46.187 179.788 46.355C180.382 46.517 180.871 46.754 181.255 47.066C181.645 47.378 181.933 47.756 182.119 48.2C182.305 48.638 182.398 49.13 182.398 49.676C182.398 50.132 182.326 50.558 182.182 50.954C182.038 51.35 181.828 51.707 181.552 52.025C181.282 52.337 180.949 52.604 180.553 52.826C180.163 53.048 179.719 53.216 179.221 53.33C179.443 53.456 179.635 53.639 179.797 53.879L183.559 59ZM200.367 46.103V59H199.494C199.356 59 199.239 58.976 199.143 58.928C199.053 58.88 198.963 58.799 198.873 58.685L191.412 48.965C191.424 49.115 191.433 49.262 191.439 49.406C191.445 49.55 191.448 49.685 191.448 49.811V59H189.918V46.103H190.818C190.896 46.103 190.962 46.109 191.016 46.121C191.07 46.127 191.118 46.142 191.16 46.166C191.202 46.184 191.244 46.214 191.286 46.256C191.328 46.292 191.373 46.34 191.421 46.4L198.882 56.111C198.87 55.955 198.858 55.805 198.846 55.661C198.84 55.511 198.837 55.37 198.837 55.238V46.103H200.367ZM211.621 57.578L211.612 59H203.665V46.103H211.612V47.525H205.411V51.809H210.433V53.177H205.411V57.578H211.621ZM230.766 46.103L226.743 59H225.177L221.91 49.163C221.88 49.067 221.85 48.965 221.82 48.857C221.796 48.749 221.769 48.635 221.739 48.515C221.709 48.635 221.679 48.749 221.649 48.857C221.619 48.965 221.589 49.067 221.559 49.163L218.274 59H216.708L212.685 46.103H214.134C214.29 46.103 214.419 46.142 214.521 46.22C214.629 46.298 214.698 46.397 214.728 46.517L217.392 55.481C217.434 55.643 217.473 55.817 217.509 56.003C217.551 56.189 217.59 56.387 217.626 56.597C217.668 56.387 217.71 56.189 217.752 56.003C217.8 55.811 217.851 55.637 217.905 55.481L220.938 46.517C220.974 46.415 221.043 46.322 221.145 46.238C221.253 46.148 221.382 46.103 221.532 46.103H222.036C222.192 46.103 222.318 46.142 222.414 46.22C222.51 46.298 222.582 46.397 222.63 46.517L225.654 55.481C225.708 55.637 225.756 55.805 225.798 55.985C225.846 56.165 225.891 56.354 225.933 56.552C225.963 56.354 225.996 56.165 226.032 55.985C226.068 55.805 226.107 55.637 226.149 55.481L228.822 46.517C228.852 46.409 228.918 46.313 229.02 46.229C229.128 46.145 229.257 46.103 229.407 46.103H230.766ZM240.003 57.533V59H232.686V46.103H234.423V57.533H240.003ZM249.888 57.578L249.879 59H241.932V46.103H249.879V47.525H243.678V51.809H248.7V53.177H243.678V57.578H249.888ZM261.042 47.57H256.866V59H255.129V47.57H250.944V46.103H261.042V47.57ZM271.677 47.57H267.501V59H265.764V47.57H261.579V46.103H271.677V47.57ZM281.546 57.578L281.537 59H273.59V46.103H281.537V47.525H275.336V51.809H280.358V53.177H275.336V57.578H281.546ZM287.552 52.349C288.056 52.349 288.5 52.289 288.884 52.169C289.274 52.043 289.598 51.869 289.856 51.647C290.12 51.419 290.318 51.149 290.45 50.837C290.582 50.525 290.648 50.18 290.648 49.802C290.648 49.034 290.396 48.455 289.892 48.065C289.388 47.675 288.632 47.48 287.624 47.48H285.716V52.349H287.552ZM293.51 59H291.962C291.644 59 291.41 58.877 291.26 58.631L287.912 54.023C287.81 53.879 287.699 53.777 287.579 53.717C287.465 53.651 287.285 53.618 287.039 53.618H285.716V59H283.979V46.103H287.624C288.44 46.103 289.145 46.187 289.739 46.355C290.333 46.517 290.822 46.754 291.206 47.066C291.596 47.378 291.884 47.756 292.07 48.2C292.256 48.638 292.349 49.13 292.349 49.676C292.349 50.132 292.277 50.558 292.133 50.954C291.989 51.35 291.779 51.707 291.503 52.025C291.233 52.337 290.9 52.604 290.504 52.826C290.114 53.048 289.67 53.216 289.172 53.33C289.394 53.456 289.586 53.639 289.748 53.879L293.51 59ZM306.121 54.212L304.096 48.965C304.036 48.809 303.973 48.629 303.907 48.425C303.841 48.215 303.778 47.993 303.718 47.759C303.592 48.245 303.463 48.65 303.331 48.974L301.306 54.212H306.121ZM309.757 59H308.407C308.251 59 308.125 58.961 308.029 58.883C307.933 58.805 307.861 58.706 307.813 58.586L306.607 55.472H300.82L299.614 58.586C299.578 58.694 299.509 58.79 299.407 58.874C299.305 58.958 299.179 59 299.029 59H297.679L302.836 46.103H304.6L309.757 59ZM321.903 46.103V59H321.03C320.892 59 320.775 58.976 320.679 58.928C320.589 58.88 320.499 58.799 320.409 58.685L312.948 48.965C312.96 49.115 312.969 49.262 312.975 49.406C312.981 49.55 312.984 49.685 312.984 49.811V59H311.454V46.103H312.354C312.432 46.103 312.498 46.109 312.552 46.121C312.606 46.127 312.654 46.142 312.696 46.166C312.738 46.184 312.78 46.214 312.822 46.256C312.864 46.292 312.909 46.34 312.957 46.4L320.418 56.111C320.406 55.955 320.394 55.805 320.382 55.661C320.376 55.511 320.373 55.37 320.373 55.238V46.103H321.903ZM336.378 52.556C336.378 53.522 336.225 54.401 335.919 55.193C335.613 55.985 335.181 56.663 334.623 57.227C334.065 57.791 333.393 58.229 332.607 58.541C331.827 58.847 330.963 59 330.015 59H325.2V46.103H330.015C330.963 46.103 331.827 46.259 332.607 46.571C333.393 46.877 334.065 47.315 334.623 47.885C335.181 48.449 335.613 49.127 335.919 49.919C336.225 50.711 336.378 51.59 336.378 52.556ZM334.587 52.556C334.587 51.764 334.479 51.056 334.263 50.432C334.047 49.808 333.741 49.28 333.345 48.848C332.949 48.416 332.469 48.086 331.905 47.858C331.341 47.63 330.711 47.516 330.015 47.516H326.946V57.587H330.015C330.711 57.587 331.341 57.473 331.905 57.245C332.469 57.017 332.949 56.69 333.345 56.264C333.741 55.832 334.047 55.304 334.263 54.68C334.479 54.056 334.587 53.348 334.587 52.556ZM347.306 52.79C347.804 52.79 348.242 52.724 348.62 52.592C349.004 52.46 349.325 52.277 349.583 52.043C349.847 51.803 350.045 51.518 350.177 51.188C350.309 50.858 350.375 50.495 350.375 50.099C350.375 49.277 350.12 48.635 349.61 48.173C349.106 47.711 348.338 47.48 347.306 47.48H345.236V52.79H347.306ZM347.306 46.103C348.122 46.103 348.83 46.199 349.43 46.391C350.036 46.577 350.537 46.844 350.933 47.192C351.329 47.54 351.623 47.96 351.815 48.452C352.013 48.944 352.112 49.493 352.112 50.099C352.112 50.699 352.007 51.248 351.797 51.746C351.587 52.244 351.278 52.673 350.87 53.033C350.468 53.393 349.967 53.675 349.367 53.879C348.773 54.077 348.086 54.176 347.306 54.176H345.236V59H343.499V46.103H347.306ZM357.882 52.349C358.386 52.349 358.83 52.289 359.214 52.169C359.604 52.043 359.928 51.869 360.186 51.647C360.45 51.419 360.648 51.149 360.78 50.837C360.912 50.525 360.978 50.18 360.978 49.802C360.978 49.034 360.726 48.455 360.222 48.065C359.718 47.675 358.962 47.48 357.954 47.48H356.046V52.349H357.882ZM363.84 59H362.292C361.974 59 361.74 58.877 361.59 58.631L358.242 54.023C358.14 53.879 358.029 53.777 357.909 53.717C357.795 53.651 357.615 53.618 357.369 53.618H356.046V59H354.309V46.103H357.954C358.77 46.103 359.475 46.187 360.069 46.355C360.663 46.517 361.152 46.754 361.536 47.066C361.926 47.378 362.214 47.756 362.4 48.2C362.586 48.638 362.679 49.13 362.679 49.676C362.679 50.132 362.607 50.558 362.463 50.954C362.319 51.35 362.109 51.707 361.833 52.025C361.563 52.337 361.23 52.604 360.834 52.826C360.444 53.048 360 53.216 359.502 53.33C359.724 53.456 359.916 53.639 360.078 53.879L363.84 59ZM377.387 52.556C377.387 53.522 377.234 54.41 376.928 55.22C376.622 56.024 376.19 56.717 375.632 57.299C375.074 57.881 374.402 58.334 373.616 58.658C372.836 58.976 371.972 59.135 371.024 59.135C370.076 59.135 369.212 58.976 368.432 58.658C367.652 58.334 366.983 57.881 366.425 57.299C365.867 56.717 365.435 56.024 365.129 55.22C364.823 54.41 364.67 53.522 364.67 52.556C364.67 51.59 364.823 50.705 365.129 49.901C365.435 49.091 365.867 48.395 366.425 47.813C366.983 47.225 367.652 46.769 368.432 46.445C369.212 46.121 370.076 45.959 371.024 45.959C371.972 45.959 372.836 46.121 373.616 46.445C374.402 46.769 375.074 47.225 375.632 47.813C376.19 48.395 376.622 49.091 376.928 49.901C377.234 50.705 377.387 51.59 377.387 52.556ZM375.596 52.556C375.596 51.764 375.488 51.053 375.272 50.423C375.056 49.793 374.75 49.262 374.354 48.83C373.958 48.392 373.478 48.056 372.914 47.822C372.35 47.588 371.72 47.471 371.024 47.471C370.334 47.471 369.707 47.588 369.143 47.822C368.579 48.056 368.096 48.392 367.694 48.83C367.298 49.262 366.992 49.793 366.776 50.423C366.56 51.053 366.452 51.764 366.452 52.556C366.452 53.348 366.56 54.059 366.776 54.689C366.992 55.313 367.298 55.844 367.694 56.282C368.096 56.714 368.579 57.047 369.143 57.281C369.707 57.509 370.334 57.623 371.024 57.623C371.72 57.623 372.35 57.509 372.914 57.281C373.478 57.047 373.958 56.714 374.354 56.282C374.75 55.844 375.056 55.313 375.272 54.689C375.488 54.059 375.596 53.348 375.596 52.556ZM393.304 46.103V59H391.774V49.523C391.774 49.397 391.777 49.262 391.783 49.118C391.795 48.974 391.807 48.827 391.819 48.677L387.391 56.741C387.253 57.011 387.043 57.146 386.761 57.146H386.509C386.227 57.146 386.017 57.011 385.879 56.741L381.361 48.641C381.397 48.959 381.415 49.253 381.415 49.523V59H379.885V46.103H381.172C381.328 46.103 381.448 46.118 381.532 46.148C381.616 46.178 381.697 46.262 381.775 46.4L386.23 54.338C386.302 54.482 386.371 54.632 386.437 54.788C386.509 54.944 386.575 55.103 386.635 55.265C386.695 55.103 386.758 54.944 386.824 54.788C386.89 54.626 386.962 54.473 387.04 54.329L391.414 46.4C391.486 46.262 391.564 46.178 391.648 46.148C391.738 46.118 391.861 46.103 392.017 46.103H393.304ZM408.518 52.556C408.518 53.522 408.365 54.41 408.059 55.22C407.753 56.024 407.321 56.717 406.763 57.299C406.205 57.881 405.533 58.334 404.747 58.658C403.967 58.976 403.103 59.135 402.155 59.135C401.207 59.135 400.343 58.976 399.563 58.658C398.783 58.334 398.114 57.881 397.556 57.299C396.998 56.717 396.566 56.024 396.26 55.22C395.954 54.41 395.801 53.522 395.801 52.556C395.801 51.59 395.954 50.705 396.26 49.901C396.566 49.091 396.998 48.395 397.556 47.813C398.114 47.225 398.783 46.769 399.563 46.445C400.343 46.121 401.207 45.959 402.155 45.959C403.103 45.959 403.967 46.121 404.747 46.445C405.533 46.769 406.205 47.225 406.763 47.813C407.321 48.395 407.753 49.091 408.059 49.901C408.365 50.705 408.518 51.59 408.518 52.556ZM406.727 52.556C406.727 51.764 406.619 51.053 406.403 50.423C406.187 49.793 405.881 49.262 405.485 48.83C405.089 48.392 404.609 48.056 404.045 47.822C403.481 47.588 402.851 47.471 402.155 47.471C401.465 47.471 400.838 47.588 400.274 47.822C399.71 48.056 399.227 48.392 398.825 48.83C398.429 49.262 398.123 49.793 397.907 50.423C397.691 51.053 397.583 51.764 397.583 52.556C397.583 53.348 397.691 54.059 397.907 54.689C398.123 55.313 398.429 55.844 398.825 56.282C399.227 56.714 399.71 57.047 400.274 57.281C400.838 57.509 401.465 57.623 402.155 57.623C402.851 57.623 403.481 57.509 404.045 57.281C404.609 57.047 405.089 56.714 405.485 56.282C405.881 55.844 406.187 55.313 406.403 54.689C406.619 54.059 406.727 53.348 406.727 52.556ZM419.157 47.57H414.981V59H413.244V47.57H409.059V46.103H419.157V47.57ZM422.817 59H421.071V46.103H422.817V59ZM438.032 52.556C438.032 53.522 437.879 54.41 437.573 55.22C437.267 56.024 436.835 56.717 436.277 57.299C435.719 57.881 435.047 58.334 434.261 58.658C433.481 58.976 432.617 59.135 431.669 59.135C430.721 59.135 429.857 58.976 429.077 58.658C428.297 58.334 427.628 57.881 427.07 57.299C426.512 56.717 426.08 56.024 425.774 55.22C425.468 54.41 425.315 53.522 425.315 52.556C425.315 51.59 425.468 50.705 425.774 49.901C426.08 49.091 426.512 48.395 427.07 47.813C427.628 47.225 428.297 46.769 429.077 46.445C429.857 46.121 430.721 45.959 431.669 45.959C432.617 45.959 433.481 46.121 434.261 46.445C435.047 46.769 435.719 47.225 436.277 47.813C436.835 48.395 437.267 49.091 437.573 49.901C437.879 50.705 438.032 51.59 438.032 52.556ZM436.241 52.556C436.241 51.764 436.133 51.053 435.917 50.423C435.701 49.793 435.395 49.262 434.999 48.83C434.603 48.392 434.123 48.056 433.559 47.822C432.995 47.588 432.365 47.471 431.669 47.471C430.979 47.471 430.352 47.588 429.788 47.822C429.224 48.056 428.741 48.392 428.339 48.83C427.943 49.262 427.637 49.793 427.421 50.423C427.205 51.053 427.097 51.764 427.097 52.556C427.097 53.348 427.205 54.059 427.421 54.689C427.637 55.313 427.943 55.844 428.339 56.282C428.741 56.714 429.224 57.047 429.788 57.281C430.352 57.509 430.979 57.623 431.669 57.623C432.365 57.623 432.995 57.509 433.559 57.281C434.123 57.047 434.603 56.714 434.999 56.282C435.395 55.844 435.701 55.313 435.917 54.689C436.133 54.059 436.241 53.348 436.241 52.556ZM450.979 46.103V59H450.106C449.968 59 449.851 58.976 449.755 58.928C449.665 58.88 449.575 58.799 449.485 58.685L442.024 48.965C442.036 49.115 442.045 49.262 442.051 49.406C442.057 49.55 442.06 49.685 442.06 49.811V59H440.53V46.103H441.43C441.508 46.103 441.574 46.109 441.628 46.121C441.682 46.127 441.73 46.142 441.772 46.166C441.814 46.184 441.856 46.214 441.898 46.256C441.94 46.292 441.985 46.34 442.033 46.4L449.494 56.111C449.482 55.955 449.47 55.805 449.458 55.661C449.452 55.511 449.449 55.37 449.449 55.238V46.103H450.979Z" fill="#222224"/>
</svg>
