<svg width="250" height="15" viewBox="0 0 250 15" fill="none" xmlns="http://www.w3.org/2000/svg">
<path d="M8.696 8.208C8.776 8.20267 8.848 8.232 8.912 8.296L9.392 8.808C9.088 9.16 8.71467 9.43467 8.272 9.632C7.83467 9.824 7.30667 9.92 6.688 9.92C6.16533 9.92 5.688 9.82933 5.256 9.648C4.82933 9.46667 4.46133 9.21333 4.152 8.888C3.848 8.56267 3.61067 8.176 3.44 7.728C3.27467 7.28 3.192 6.78933 3.192 6.256C3.192 5.71733 3.28267 5.224 3.464 4.776C3.64533 4.32267 3.89867 3.936 4.224 3.616C4.54933 3.29067 4.93333 3.04 5.376 2.864C5.824 2.68267 6.30933 2.592 6.832 2.592C7.41333 2.592 7.904 2.68267 8.304 2.864C8.70933 3.04 9.064 3.27733 9.368 3.576L9 4.096C8.97333 4.128 8.93867 4.16 8.896 4.192C8.85333 4.224 8.80267 4.24 8.744 4.24C8.66933 4.24 8.58933 4.21067 8.504 4.152C8.424 4.09333 8.31733 4.02933 8.184 3.96C8.05067 3.88533 7.88 3.81867 7.672 3.76C7.46933 3.696 7.21333 3.664 6.904 3.664C6.52533 3.664 6.18667 3.72533 5.888 3.848C5.58933 3.96533 5.33333 4.136 5.12 4.36C4.90667 4.584 4.744 4.856 4.632 5.176C4.52 5.496 4.464 5.856 4.464 6.256C4.464 6.66667 4.52 7.03467 4.632 7.36C4.74933 7.68 4.90933 7.94933 5.112 8.168C5.31467 8.38667 5.55467 8.55467 5.832 8.672C6.11467 8.784 6.42133 8.84 6.752 8.84C7.02933 8.84 7.26133 8.81867 7.448 8.776C7.63467 8.73333 7.79733 8.68267 7.936 8.624C8.08 8.56 8.208 8.49067 8.32 8.416C8.43733 8.34133 8.56267 8.272 8.696 8.208ZM0.808 6.272C0.808 5.73333 0.877333 5.216 1.016 4.72C1.15467 4.21867 1.352 3.752 1.608 3.32C1.864 2.88267 2.168 2.488 2.52 2.136C2.87733 1.77867 3.272 1.472 3.704 1.216C4.136 0.96 4.6 0.762666 5.096 0.624C5.592 0.485333 6.10933 0.415999 6.648 0.415999C7.18667 0.415999 7.704 0.485333 8.2 0.624C8.70133 0.762666 9.168 0.96 9.6 1.216C10.032 1.472 10.4267 1.77867 10.784 2.136C11.1413 2.488 11.4453 2.88267 11.696 3.32C11.952 3.752 12.1493 4.21867 12.288 4.72C12.4267 5.216 12.496 5.73333 12.496 6.272C12.496 6.80533 12.4267 7.32267 12.288 7.824C12.1493 8.32 11.952 8.784 11.696 9.216C11.4453 9.648 11.1413 10.0427 10.784 10.4C10.4267 10.752 10.032 11.056 9.6 11.312C9.168 11.568 8.70133 11.7653 8.2 11.904C7.704 12.0427 7.18667 12.112 6.648 12.112C6.10933 12.112 5.592 12.0427 5.096 11.904C4.6 11.7653 4.136 11.568 3.704 11.312C3.272 11.056 2.87733 10.752 2.52 10.4C2.168 10.0427 1.864 9.648 1.608 9.216C1.352 8.784 1.15467 8.32 1.016 7.824C0.877333 7.328 0.808 6.81067 0.808 6.272ZM1.616 6.272C1.616 6.74667 1.67467 7.20267 1.792 7.64C1.90933 8.07733 2.07467 8.488 2.288 8.872C2.50667 9.25067 2.768 9.59467 3.072 9.904C3.38133 10.2133 3.72 10.48 4.088 10.704C4.46133 10.9227 4.864 11.0933 5.296 11.216C5.728 11.3333 6.17867 11.392 6.648 11.392C7.11733 11.392 7.568 11.3333 8 11.216C8.43733 11.0933 8.84267 10.9227 9.216 10.704C9.59467 10.48 9.936 10.2133 10.24 9.904C10.5493 9.59467 10.8133 9.25067 11.032 8.872C11.2507 8.488 11.4187 8.07733 11.536 7.64C11.6587 7.20267 11.72 6.74667 11.72 6.272C11.72 5.55733 11.5867 4.888 11.32 4.264C11.0587 3.63467 10.6987 3.088 10.24 2.624C9.78667 2.15467 9.25067 1.78667 8.632 1.52C8.01333 1.248 7.352 1.112 6.648 1.112C6.17867 1.112 5.728 1.17333 5.296 1.296C4.864 1.41867 4.46133 1.592 4.088 1.816C3.72 2.03467 3.38133 2.30133 3.072 2.616C2.768 2.93067 2.50667 3.28 2.288 3.664C2.07467 4.04267 1.90933 4.45333 1.792 4.896C1.67467 5.33867 1.616 5.79733 1.616 6.272ZM25.2866 10.648C25.4413 10.648 25.564 10.6933 25.6546 10.784C25.7453 10.8747 25.7906 10.992 25.7906 11.136V12H18.1426V11.512C18.1426 11.4107 18.164 11.3067 18.2066 11.2C18.2493 11.0933 18.316 10.9947 18.4066 10.904L22.0786 7.216C22.3826 6.90667 22.66 6.61067 22.9106 6.328C23.1613 6.04 23.3746 5.752 23.5506 5.464C23.7266 5.176 23.8626 4.88533 23.9586 4.592C24.0546 4.29333 24.1026 3.976 24.1026 3.64C24.1026 3.304 24.0493 3.01067 23.9426 2.76C23.836 2.504 23.6893 2.29333 23.5026 2.128C23.3213 1.96267 23.1053 1.84 22.8546 1.76C22.604 1.67467 22.3346 1.632 22.0466 1.632C21.7533 1.632 21.484 1.67467 21.2386 1.76C20.9933 1.84533 20.7746 1.96533 20.5826 2.12C20.396 2.26933 20.2386 2.448 20.1106 2.656C19.9826 2.864 19.892 3.09333 19.8386 3.344C19.7746 3.53067 19.6866 3.656 19.5746 3.72C19.468 3.77867 19.316 3.79467 19.1186 3.768L18.3746 3.64C18.4493 3.11733 18.5933 2.656 18.8066 2.256C19.0253 1.85067 19.2973 1.512 19.6226 1.24C19.9533 0.968 20.3293 0.762666 20.7506 0.624C21.172 0.479999 21.628 0.407999 22.1186 0.407999C22.604 0.407999 23.0573 0.479999 23.4786 0.624C23.9 0.767999 24.2653 0.978666 24.5746 1.256C24.884 1.528 25.1266 1.86133 25.3026 2.256C25.4786 2.65067 25.5666 3.09867 25.5666 3.6C25.5666 4.02667 25.5026 4.424 25.3746 4.792C25.2466 5.15467 25.0733 5.50133 24.8546 5.832C24.636 6.16267 24.3826 6.48533 24.0946 6.8C23.812 7.11467 23.5106 7.432 23.1906 7.752L20.1666 10.84C20.38 10.7813 20.596 10.736 20.8146 10.704C21.0333 10.6667 21.244 10.648 21.4466 10.648H25.2866ZM35.4719 6.272C35.4719 7.27467 35.3625 8.144 35.1439 8.88C34.9305 9.61067 34.6372 10.216 34.2639 10.696C33.8905 11.176 33.4479 11.5333 32.9359 11.768C32.4292 12.0027 31.8852 12.12 31.3039 12.12C30.7172 12.12 30.1705 12.0027 29.6639 11.768C29.1625 11.5333 28.7252 11.176 28.3519 10.696C27.9785 10.216 27.6852 9.61067 27.4719 8.88C27.2585 8.144 27.1519 7.27467 27.1519 6.272C27.1519 5.26933 27.2585 4.4 27.4719 3.664C27.6852 2.928 27.9785 2.32 28.3519 1.84C28.7252 1.35467 29.1625 0.994666 29.6639 0.759999C30.1705 0.525332 30.7172 0.407999 31.3039 0.407999C31.8852 0.407999 32.4292 0.525332 32.9359 0.759999C33.4479 0.994666 33.8905 1.35467 34.2639 1.84C34.6372 2.32 34.9305 2.928 35.1439 3.664C35.3625 4.4 35.4719 5.26933 35.4719 6.272ZM33.9919 6.272C33.9919 5.39733 33.9172 4.664 33.7679 4.072C33.6239 3.47467 33.4265 2.99467 33.1759 2.632C32.9305 2.26933 32.6452 2.01067 32.3199 1.856C31.9945 1.696 31.6559 1.616 31.3039 1.616C30.9519 1.616 30.6132 1.696 30.2879 1.856C29.9625 2.01067 29.6772 2.26933 29.4319 2.632C29.1865 2.99467 28.9892 3.47467 28.8399 4.072C28.6959 4.664 28.6239 5.39733 28.6239 6.272C28.6239 7.14667 28.6959 7.88 28.8399 8.472C28.9892 9.064 29.1865 9.54133 29.4319 9.904C29.6772 10.2667 29.9625 10.528 30.2879 10.688C30.6132 10.8427 30.9519 10.92 31.3039 10.92C31.6559 10.92 31.9945 10.8427 32.3199 10.688C32.6452 10.528 32.9305 10.2667 33.1759 9.904C33.4265 9.54133 33.6239 9.064 33.7679 8.472C33.9172 7.88 33.9919 7.14667 33.9919 6.272ZM43.8491 10.648C44.0038 10.648 44.1265 10.6933 44.2171 10.784C44.3078 10.8747 44.3531 10.992 44.3531 11.136V12H36.7051V11.512C36.7051 11.4107 36.7265 11.3067 36.7691 11.2C36.8118 11.0933 36.8785 10.9947 36.9691 10.904L40.6411 7.216C40.9451 6.90667 41.2225 6.61067 41.4731 6.328C41.7238 6.04 41.9371 5.752 42.1131 5.464C42.2891 5.176 42.4251 4.88533 42.5211 4.592C42.6171 4.29333 42.6651 3.976 42.6651 3.64C42.6651 3.304 42.6118 3.01067 42.5051 2.76C42.3985 2.504 42.2518 2.29333 42.0651 2.128C41.8838 1.96267 41.6678 1.84 41.4171 1.76C41.1665 1.67467 40.8971 1.632 40.6091 1.632C40.3158 1.632 40.0465 1.67467 39.8011 1.76C39.5558 1.84533 39.3371 1.96533 39.1451 2.12C38.9585 2.26933 38.8011 2.448 38.6731 2.656C38.5451 2.864 38.4545 3.09333 38.4011 3.344C38.3371 3.53067 38.2491 3.656 38.1371 3.72C38.0305 3.77867 37.8785 3.79467 37.6811 3.768L36.9371 3.64C37.0118 3.11733 37.1558 2.656 37.3691 2.256C37.5878 1.85067 37.8598 1.512 38.1851 1.24C38.5158 0.968 38.8918 0.762666 39.3131 0.624C39.7345 0.479999 40.1905 0.407999 40.6811 0.407999C41.1665 0.407999 41.6198 0.479999 42.0411 0.624C42.4625 0.767999 42.8278 0.978666 43.1371 1.256C43.4465 1.528 43.6891 1.86133 43.8651 2.256C44.0411 2.65067 44.1291 3.09867 44.1291 3.6C44.1291 4.02667 44.0651 4.424 43.9371 4.792C43.8091 5.15467 43.6358 5.50133 43.4171 5.832C43.1985 6.16267 42.9451 6.48533 42.6571 6.8C42.3745 7.11467 42.0731 7.432 41.7531 7.752L38.7291 10.84C38.9425 10.7813 39.1585 10.736 39.3771 10.704C39.5958 10.6667 39.8065 10.648 40.0091 10.648H43.8491ZM53.3784 10.912V12H47.2344V10.912H49.6904V3.096C49.6904 2.86133 49.6984 2.624 49.7144 2.384L47.6744 4.136C47.605 4.19467 47.5357 4.232 47.4664 4.248C47.397 4.25867 47.333 4.25867 47.2744 4.248C47.2157 4.23733 47.1597 4.216 47.1064 4.184C47.0584 4.152 47.021 4.11733 46.9944 4.08L46.5464 3.464L49.9624 0.511999H51.1224V10.912H53.3784ZM68.1911 10.768C68.6338 10.768 69.0151 10.7173 69.3351 10.616C69.6551 10.5147 69.9165 10.3733 70.1191 10.192C70.3271 10.0053 70.4791 9.78667 70.5751 9.536C70.6711 9.28 70.7191 9 70.7191 8.696C70.7191 8.104 70.5085 7.63733 70.0871 7.296C69.6658 6.94933 69.0338 6.776 68.1911 6.776H65.7111V10.768H68.1911ZM65.7111 1.76V5.672H67.7591C68.1965 5.672 68.5751 5.624 68.8951 5.528C69.2205 5.432 69.4871 5.29867 69.6951 5.128C69.9085 4.95733 70.0658 4.752 70.1671 4.512C70.2685 4.26667 70.3191 4 70.3191 3.712C70.3191 3.03467 70.1165 2.54133 69.7111 2.232C69.3058 1.91733 68.6765 1.76 67.8231 1.76H65.7111ZM67.8231 0.535999C68.5271 0.535999 69.1325 0.605333 69.6391 0.743999C70.1511 0.882666 70.5698 1.08 70.8951 1.336C71.2258 1.592 71.4685 1.90667 71.6231 2.28C71.7778 2.648 71.8551 3.064 71.8551 3.528C71.8551 3.81067 71.8098 4.08267 71.7191 4.344C71.6338 4.6 71.5031 4.84 71.3271 5.064C71.1511 5.288 70.9271 5.49067 70.6551 5.672C70.3885 5.848 70.0738 5.992 69.7111 6.104C70.5538 6.264 71.1858 6.56533 71.6071 7.008C72.0338 7.44533 72.2471 8.02133 72.2471 8.736C72.2471 9.22133 72.1565 9.664 71.9751 10.064C71.7991 10.464 71.5378 10.808 71.1911 11.096C70.8498 11.384 70.4285 11.608 69.9271 11.768C69.4258 11.9227 68.8551 12 68.2151 12H64.1671V0.535999H67.8231ZM75.355 5.52C75.611 4.96533 75.9257 4.53333 76.299 4.224C76.6723 3.90933 77.1283 3.752 77.667 3.752C77.8377 3.752 78.0003 3.77067 78.155 3.808C78.315 3.84533 78.4563 3.904 78.579 3.984L78.475 5.048C78.443 5.18133 78.363 5.248 78.235 5.248C78.1603 5.248 78.051 5.232 77.907 5.2C77.763 5.168 77.6003 5.152 77.419 5.152C77.163 5.152 76.9337 5.18933 76.731 5.264C76.5337 5.33867 76.355 5.45067 76.195 5.6C76.0403 5.744 75.899 5.92533 75.771 6.144C75.6483 6.35733 75.5363 6.60267 75.435 6.88V12H74.003V3.896H74.819C74.9737 3.896 75.0803 3.92533 75.139 3.984C75.1977 4.04267 75.2377 4.144 75.259 4.288L75.355 5.52ZM84.0981 8.352C83.4421 8.37333 82.8821 8.42667 82.4181 8.512C81.9595 8.592 81.5835 8.69867 81.2901 8.832C81.0021 8.96533 80.7915 9.12267 80.6581 9.304C80.5301 9.48533 80.4661 9.688 80.4661 9.912C80.4661 10.1253 80.5008 10.3093 80.5701 10.464C80.6395 10.6187 80.7328 10.7467 80.8501 10.848C80.9728 10.944 81.1141 11.016 81.2741 11.064C81.4395 11.1067 81.6155 11.128 81.8021 11.128C82.0528 11.128 82.2821 11.104 82.4901 11.056C82.6981 11.0027 82.8928 10.928 83.0741 10.832C83.2608 10.736 83.4368 10.6213 83.6021 10.488C83.7728 10.3547 83.9381 10.2027 84.0981 10.032V8.352ZM79.4981 5.04C79.9461 4.608 80.4288 4.28533 80.9461 4.072C81.4635 3.85867 82.0368 3.752 82.6661 3.752C83.1195 3.752 83.5221 3.82667 83.8741 3.976C84.2261 4.12533 84.5221 4.33333 84.7621 4.6C85.0021 4.86667 85.1835 5.18933 85.3061 5.568C85.4288 5.94667 85.4901 6.36267 85.4901 6.816V12H84.8581C84.7195 12 84.6128 11.9787 84.5381 11.936C84.4635 11.888 84.4048 11.7973 84.3621 11.664L84.2021 10.896C83.9888 11.0933 83.7808 11.2693 83.5781 11.424C83.3755 11.5733 83.1621 11.7013 82.9381 11.808C82.7141 11.9093 82.4741 11.9867 82.2181 12.04C81.9675 12.0987 81.6875 12.128 81.3781 12.128C81.0635 12.128 80.7675 12.0853 80.4901 12C80.2128 11.9093 79.9701 11.776 79.7621 11.6C79.5595 11.424 79.3968 11.2027 79.2741 10.936C79.1568 10.664 79.0981 10.344 79.0981 9.976C79.0981 9.656 79.1861 9.34933 79.3621 9.056C79.5381 8.75733 79.8235 8.49333 80.2181 8.264C80.6128 8.03467 81.1275 7.848 81.7621 7.704C82.3968 7.55467 83.1755 7.46933 84.0981 7.448V6.816C84.0981 6.18667 83.9621 5.712 83.6901 5.392C83.4181 5.06667 83.0208 4.904 82.4981 4.904C82.1461 4.904 81.8501 4.94933 81.6101 5.04C81.3755 5.12533 81.1701 5.224 80.9941 5.336C80.8235 5.44267 80.6741 5.54133 80.5461 5.632C80.4235 5.71733 80.3008 5.76 80.1781 5.76C80.0821 5.76 79.9995 5.736 79.9301 5.688C79.8608 5.63467 79.8021 5.57067 79.7541 5.496L79.4981 5.04ZM89.0033 5.072C89.1793 4.87467 89.3659 4.696 89.5633 4.536C89.7606 4.376 89.9686 4.24 90.1873 4.128C90.4113 4.01067 90.6459 3.92267 90.8913 3.864C91.1419 3.8 91.4113 3.768 91.6993 3.768C92.1419 3.768 92.5313 3.84267 92.8673 3.992C93.2086 4.136 93.4913 4.344 93.7153 4.616C93.9446 4.88267 94.1179 5.20533 94.2353 5.584C94.3526 5.96267 94.4113 6.38133 94.4113 6.84V12H92.9793V6.84C92.9793 6.22667 92.8379 5.752 92.5553 5.416C92.2779 5.07467 91.8539 4.904 91.2833 4.904C90.8619 4.904 90.4673 5.00533 90.0993 5.208C89.7366 5.41067 89.4006 5.68533 89.0913 6.032V12H87.6593V3.896H88.5153C88.7179 3.896 88.8433 3.99467 88.8913 4.192L89.0033 5.072ZM101.861 5.824C101.594 5.46667 101.306 5.21867 100.997 5.08C100.688 4.936 100.341 4.864 99.9571 4.864C99.2051 4.864 98.6265 5.13333 98.2211 5.672C97.8158 6.21067 97.6131 6.97867 97.6131 7.976C97.6131 8.504 97.6585 8.95733 97.7491 9.336C97.8398 9.70933 97.9731 10.0187 98.1491 10.264C98.3251 10.504 98.5411 10.68 98.7971 10.792C99.0531 10.904 99.3438 10.96 99.6691 10.96C100.138 10.96 100.546 10.8533 100.893 10.64C101.245 10.4267 101.568 10.1253 101.861 9.736V5.824ZM103.285 0.216V12H102.437C102.234 12 102.106 11.9013 102.053 11.704L101.925 10.72C101.578 11.136 101.184 11.472 100.741 11.728C100.298 11.984 99.7865 12.112 99.2051 12.112C98.7411 12.112 98.3198 12.024 97.9411 11.848C97.5625 11.6667 97.2398 11.4027 96.9731 11.056C96.7065 10.7093 96.5011 10.2773 96.3571 9.76C96.2131 9.24267 96.1411 8.648 96.1411 7.976C96.1411 7.37867 96.2211 6.824 96.3811 6.312C96.5411 5.79467 96.7705 5.34667 97.0691 4.968C97.3678 4.58933 97.7331 4.29333 98.1651 4.08C98.6025 3.86133 99.0931 3.752 99.6371 3.752C100.133 3.752 100.557 3.83733 100.909 4.008C101.266 4.17333 101.584 4.40533 101.861 4.704V0.216H103.285ZM119.615 7.744L117.815 3.08C117.761 2.94133 117.705 2.78133 117.647 2.6C117.588 2.41333 117.532 2.216 117.479 2.008C117.367 2.44 117.252 2.8 117.135 3.088L115.335 7.744H119.615ZM122.847 12H121.647C121.508 12 121.396 11.9653 121.311 11.896C121.225 11.8267 121.161 11.7387 121.119 11.632L120.047 8.864H114.903L113.831 11.632C113.799 11.728 113.737 11.8133 113.647 11.888C113.556 11.9627 113.444 12 113.311 12H112.111L116.695 0.535999H118.263L122.847 12ZM125.459 0.216V12H124.035V0.216H125.459ZM129.241 0.216V12H127.817V0.216H129.241ZM139.156 6.088C139.604 6.088 139.998 6.03467 140.34 5.928C140.686 5.816 140.974 5.66133 141.204 5.464C141.438 5.26133 141.614 5.02133 141.732 4.744C141.849 4.46667 141.908 4.16 141.908 3.824C141.908 3.14133 141.684 2.62667 141.236 2.28C140.788 1.93333 140.116 1.76 139.22 1.76H137.524V6.088H139.156ZM144.452 12H143.076C142.793 12 142.585 11.8907 142.452 11.672L139.476 7.576C139.385 7.448 139.286 7.35733 139.18 7.304C139.078 7.24533 138.918 7.216 138.7 7.216H137.524V12H135.98V0.535999H139.22C139.945 0.535999 140.572 0.610666 141.1 0.759999C141.628 0.904 142.062 1.11467 142.404 1.392C142.75 1.66933 143.006 2.00533 143.172 2.4C143.337 2.78933 143.42 3.22667 143.42 3.712C143.42 4.11733 143.356 4.496 143.228 4.848C143.1 5.2 142.913 5.51733 142.668 5.8C142.428 6.07733 142.132 6.31467 141.78 6.512C141.433 6.70933 141.038 6.85867 140.596 6.96C140.793 7.072 140.964 7.23467 141.108 7.448L144.452 12ZM147.07 3.896V12H145.646V3.896H147.07ZM147.374 1.352C147.374 1.49067 147.344 1.62133 147.286 1.744C147.232 1.86133 147.158 1.968 147.062 2.064C146.971 2.15467 146.862 2.22667 146.734 2.28C146.611 2.33333 146.48 2.36 146.342 2.36C146.203 2.36 146.072 2.33333 145.95 2.28C145.832 2.22667 145.728 2.15467 145.638 2.064C145.547 1.968 145.475 1.86133 145.422 1.744C145.368 1.62133 145.342 1.49067 145.342 1.352C145.342 1.21333 145.368 1.08267 145.422 0.959999C145.475 0.831999 145.547 0.722666 145.638 0.631999C145.728 0.536 145.832 0.461333 145.95 0.407999C146.072 0.354666 146.203 0.327999 146.342 0.327999C146.48 0.327999 146.611 0.354666 146.734 0.407999C146.862 0.461333 146.971 0.536 147.062 0.631999C147.158 0.722666 147.232 0.831999 147.286 0.959999C147.344 1.08267 147.374 1.21333 147.374 1.352ZM152.233 8.04C152.521 8.04 152.775 8 152.993 7.92C153.212 7.84 153.396 7.728 153.545 7.584C153.695 7.44 153.807 7.26933 153.881 7.072C153.956 6.86933 153.993 6.648 153.993 6.408C153.993 5.912 153.841 5.51733 153.537 5.224C153.239 4.93067 152.804 4.784 152.233 4.784C151.657 4.784 151.217 4.93067 150.913 5.224C150.615 5.51733 150.465 5.912 150.465 6.408C150.465 6.648 150.503 6.86933 150.577 7.072C150.657 7.26933 150.772 7.44 150.921 7.584C151.071 7.728 151.255 7.84 151.473 7.92C151.692 8 151.945 8.04 152.233 8.04ZM154.801 12.44C154.801 12.2427 154.745 12.0827 154.633 11.96C154.521 11.8373 154.369 11.7413 154.177 11.672C153.991 11.6027 153.772 11.5547 153.521 11.528C153.271 11.496 153.004 11.472 152.721 11.456C152.444 11.44 152.161 11.424 151.873 11.408C151.585 11.392 151.308 11.3653 151.041 11.328C150.743 11.4667 150.497 11.6427 150.305 11.856C150.119 12.064 150.025 12.3093 150.025 12.592C150.025 12.7733 150.071 12.9413 150.161 13.096C150.257 13.256 150.401 13.392 150.593 13.504C150.785 13.6213 151.025 13.712 151.313 13.776C151.607 13.8453 151.951 13.88 152.345 13.88C152.729 13.88 153.073 13.8453 153.377 13.776C153.681 13.7067 153.937 13.608 154.145 13.48C154.359 13.352 154.521 13.2 154.633 13.024C154.745 12.848 154.801 12.6533 154.801 12.44ZM156.249 4.216V4.744C156.249 4.92 156.137 5.032 155.913 5.08L154.993 5.2C155.175 5.552 155.265 5.94133 155.265 6.368C155.265 6.76267 155.188 7.12267 155.033 7.448C154.884 7.768 154.676 8.04267 154.409 8.272C154.143 8.50133 153.823 8.67733 153.449 8.8C153.076 8.92267 152.671 8.984 152.233 8.984C151.855 8.984 151.497 8.93867 151.161 8.848C150.991 8.95467 150.86 9.06933 150.769 9.192C150.679 9.30933 150.633 9.42933 150.633 9.552C150.633 9.744 150.711 9.89067 150.865 9.992C151.025 10.088 151.233 10.1573 151.489 10.2C151.745 10.2427 152.036 10.2693 152.361 10.28C152.692 10.2907 153.028 10.3093 153.369 10.336C153.716 10.3573 154.052 10.3973 154.377 10.456C154.708 10.5147 155.001 10.6107 155.257 10.744C155.513 10.8773 155.719 11.0613 155.873 11.296C156.033 11.5307 156.113 11.8347 156.113 12.208C156.113 12.5547 156.025 12.8907 155.849 13.216C155.679 13.5413 155.431 13.8293 155.105 14.08C154.78 14.336 154.38 14.5387 153.905 14.688C153.436 14.8427 152.905 14.92 152.313 14.92C151.721 14.92 151.204 14.8613 150.761 14.744C150.319 14.6267 149.951 14.4693 149.657 14.272C149.364 14.0747 149.143 13.8453 148.993 13.584C148.849 13.328 148.777 13.0587 148.777 12.776C148.777 12.376 148.903 12.0373 149.153 11.76C149.404 11.4827 149.748 11.2613 150.185 11.096C149.945 10.9893 149.753 10.848 149.609 10.672C149.471 10.4907 149.401 10.248 149.401 9.944C149.401 9.82667 149.423 9.70667 149.465 9.584C149.508 9.456 149.572 9.33067 149.657 9.208C149.748 9.08 149.857 8.96 149.985 8.848C150.113 8.736 150.263 8.63733 150.433 8.552C150.033 8.328 149.721 8.032 149.497 7.664C149.273 7.29067 149.161 6.85867 149.161 6.368C149.161 5.97333 149.236 5.616 149.385 5.296C149.54 4.97067 149.753 4.696 150.025 4.472C150.297 4.24267 150.62 4.06667 150.993 3.944C151.372 3.82133 151.785 3.76 152.233 3.76C152.585 3.76 152.913 3.8 153.217 3.88C153.521 3.95467 153.799 4.06667 154.049 4.216H156.249ZM159.154 4.976C159.5 4.608 159.884 4.31467 160.306 4.096C160.727 3.87733 161.212 3.768 161.762 3.768C162.204 3.768 162.594 3.84267 162.93 3.992C163.271 4.136 163.554 4.344 163.778 4.616C164.007 4.88267 164.18 5.20533 164.298 5.584C164.415 5.96267 164.474 6.38133 164.474 6.84V12H163.042V6.84C163.042 6.22667 162.9 5.752 162.618 5.416C162.34 5.07467 161.916 4.904 161.346 4.904C160.924 4.904 160.53 5.00533 160.162 5.208C159.799 5.41067 159.463 5.68533 159.154 6.032V12H157.722V0.216H159.154V4.976ZM169.022 12.128C168.382 12.128 167.889 11.9493 167.542 11.592C167.201 11.2347 167.03 10.72 167.03 10.048V5.088H166.054C165.969 5.088 165.897 5.064 165.838 5.016C165.78 4.96267 165.75 4.88267 165.75 4.776V4.208L167.078 4.04L167.406 1.536C167.422 1.456 167.457 1.392 167.51 1.344C167.569 1.29067 167.644 1.264 167.734 1.264H168.454V4.056H170.798V5.088H168.454V9.952C168.454 10.2933 168.537 10.5467 168.702 10.712C168.868 10.8773 169.081 10.96 169.342 10.96C169.492 10.96 169.62 10.9413 169.726 10.904C169.838 10.8613 169.934 10.816 170.014 10.768C170.094 10.72 170.161 10.6773 170.214 10.64C170.273 10.5973 170.324 10.576 170.366 10.576C170.441 10.576 170.508 10.6213 170.566 10.712L170.982 11.392C170.737 11.6213 170.441 11.8027 170.094 11.936C169.748 12.064 169.39 12.128 169.022 12.128ZM176.989 5.232C176.925 5.34933 176.826 5.408 176.693 5.408C176.613 5.408 176.522 5.37867 176.421 5.32C176.319 5.26133 176.194 5.19733 176.045 5.128C175.901 5.05333 175.727 4.98667 175.525 4.928C175.322 4.864 175.082 4.832 174.805 4.832C174.565 4.832 174.349 4.864 174.157 4.928C173.965 4.98667 173.799 5.06933 173.661 5.176C173.527 5.28267 173.423 5.408 173.349 5.552C173.279 5.69067 173.245 5.84267 173.245 6.008C173.245 6.216 173.303 6.38933 173.421 6.528C173.543 6.66667 173.703 6.78667 173.901 6.888C174.098 6.98933 174.322 7.08 174.573 7.16C174.823 7.23467 175.079 7.31733 175.341 7.408C175.607 7.49333 175.866 7.58933 176.117 7.696C176.367 7.80267 176.591 7.936 176.789 8.096C176.986 8.256 177.143 8.45333 177.261 8.688C177.383 8.91733 177.445 9.19467 177.445 9.52C177.445 9.89333 177.378 10.24 177.245 10.56C177.111 10.8747 176.914 11.1493 176.653 11.384C176.391 11.6133 176.071 11.7947 175.693 11.928C175.314 12.0613 174.877 12.128 174.381 12.128C173.815 12.128 173.303 12.0373 172.845 11.856C172.386 11.6693 171.997 11.432 171.677 11.144L172.013 10.6C172.055 10.5307 172.106 10.4773 172.165 10.44C172.223 10.4027 172.298 10.384 172.389 10.384C172.485 10.384 172.586 10.4213 172.693 10.496C172.799 10.5707 172.927 10.6533 173.077 10.744C173.231 10.8347 173.418 10.9173 173.637 10.992C173.855 11.0667 174.127 11.104 174.453 11.104C174.73 11.104 174.973 11.0693 175.181 11C175.389 10.9253 175.562 10.8267 175.701 10.704C175.839 10.5813 175.941 10.44 176.005 10.28C176.074 10.12 176.109 9.94933 176.109 9.768C176.109 9.544 176.047 9.36 175.925 9.216C175.807 9.06667 175.65 8.94133 175.453 8.84C175.255 8.73333 175.029 8.64267 174.773 8.568C174.522 8.488 174.263 8.40533 173.997 8.32C173.735 8.23467 173.477 8.13867 173.221 8.032C172.97 7.92 172.746 7.78133 172.549 7.616C172.351 7.45067 172.191 7.248 172.069 7.008C171.951 6.76267 171.893 6.46667 171.893 6.12C171.893 5.81067 171.957 5.51467 172.085 5.232C172.213 4.944 172.399 4.69333 172.645 4.48C172.89 4.26133 173.191 4.088 173.549 3.96C173.906 3.832 174.314 3.768 174.773 3.768C175.306 3.768 175.783 3.85333 176.205 4.024C176.631 4.18933 176.999 4.41867 177.309 4.712L176.989 5.232ZM186.796 6.088C187.244 6.088 187.639 6.03467 187.98 5.928C188.327 5.816 188.615 5.66133 188.844 5.464C189.079 5.26133 189.255 5.02133 189.372 4.744C189.49 4.46667 189.548 4.16 189.548 3.824C189.548 3.14133 189.324 2.62667 188.876 2.28C188.428 1.93333 187.756 1.76 186.86 1.76H185.164V6.088H186.796ZM192.092 12H190.716C190.434 12 190.226 11.8907 190.092 11.672L187.116 7.576C187.026 7.448 186.927 7.35733 186.82 7.304C186.719 7.24533 186.559 7.216 186.34 7.216H185.164V12H183.62V0.535999H186.86C187.586 0.535999 188.212 0.610666 188.74 0.759999C189.268 0.904 189.703 1.11467 190.044 1.392C190.391 1.66933 190.647 2.00533 190.812 2.4C190.978 2.78933 191.06 3.22667 191.06 3.712C191.06 4.11733 190.996 4.496 190.868 4.848C190.74 5.2 190.554 5.51733 190.308 5.8C190.068 6.07733 189.772 6.31467 189.42 6.512C189.074 6.70933 188.679 6.85867 188.236 6.96C188.434 7.072 188.604 7.23467 188.748 7.448L192.092 12ZM198.224 7.064C198.224 6.73333 198.176 6.432 198.08 6.16C197.989 5.88267 197.853 5.64533 197.672 5.448C197.496 5.24533 197.28 5.09067 197.024 4.984C196.768 4.872 196.477 4.816 196.152 4.816C195.469 4.816 194.928 5.016 194.528 5.416C194.133 5.81067 193.888 6.36 193.792 7.064H198.224ZM199.376 10.864C199.2 11.0773 198.989 11.264 198.744 11.424C198.499 11.5787 198.235 11.7067 197.952 11.808C197.675 11.9093 197.387 11.984 197.088 12.032C196.789 12.0853 196.493 12.112 196.2 12.112C195.64 12.112 195.123 12.0187 194.648 11.832C194.179 11.64 193.771 11.3627 193.424 11C193.083 10.632 192.816 10.1787 192.624 9.64C192.432 9.10133 192.336 8.48267 192.336 7.784C192.336 7.21867 192.421 6.69067 192.592 6.2C192.768 5.70933 193.019 5.28533 193.344 4.928C193.669 4.56533 194.067 4.28267 194.536 4.08C195.005 3.872 195.533 3.768 196.12 3.768C196.605 3.768 197.053 3.85067 197.464 4.016C197.88 4.176 198.237 4.41067 198.536 4.72C198.84 5.024 199.077 5.40267 199.248 5.856C199.419 6.304 199.504 6.816 199.504 7.392C199.504 7.616 199.48 7.76533 199.432 7.84C199.384 7.91467 199.293 7.952 199.16 7.952H193.744C193.76 8.464 193.829 8.90933 193.952 9.288C194.08 9.66667 194.256 9.984 194.48 10.24C194.704 10.4907 194.971 10.68 195.28 10.808C195.589 10.9307 195.936 10.992 196.32 10.992C196.677 10.992 196.984 10.952 197.24 10.872C197.501 10.7867 197.725 10.696 197.912 10.6C198.099 10.504 198.253 10.416 198.376 10.336C198.504 10.2507 198.613 10.208 198.704 10.208C198.821 10.208 198.912 10.2533 198.976 10.344L199.376 10.864ZM205.973 5.232C205.909 5.34933 205.81 5.408 205.677 5.408C205.597 5.408 205.506 5.37867 205.405 5.32C205.304 5.26133 205.178 5.19733 205.029 5.128C204.885 5.05333 204.712 4.98667 204.509 4.928C204.306 4.864 204.066 4.832 203.789 4.832C203.549 4.832 203.333 4.864 203.141 4.928C202.949 4.98667 202.784 5.06933 202.645 5.176C202.512 5.28267 202.408 5.408 202.333 5.552C202.264 5.69067 202.229 5.84267 202.229 6.008C202.229 6.216 202.288 6.38933 202.405 6.528C202.528 6.66667 202.688 6.78667 202.885 6.888C203.082 6.98933 203.306 7.08 203.557 7.16C203.808 7.23467 204.064 7.31733 204.325 7.408C204.592 7.49333 204.85 7.58933 205.101 7.696C205.352 7.80267 205.576 7.936 205.773 8.096C205.97 8.256 206.128 8.45333 206.245 8.688C206.368 8.91733 206.429 9.19467 206.429 9.52C206.429 9.89333 206.362 10.24 206.229 10.56C206.096 10.8747 205.898 11.1493 205.637 11.384C205.376 11.6133 205.056 11.7947 204.677 11.928C204.298 12.0613 203.861 12.128 203.365 12.128C202.8 12.128 202.288 12.0373 201.829 11.856C201.37 11.6693 200.981 11.432 200.661 11.144L200.997 10.6C201.04 10.5307 201.09 10.4773 201.149 10.44C201.208 10.4027 201.282 10.384 201.373 10.384C201.469 10.384 201.57 10.4213 201.677 10.496C201.784 10.5707 201.912 10.6533 202.061 10.744C202.216 10.8347 202.402 10.9173 202.621 10.992C202.84 11.0667 203.112 11.104 203.437 11.104C203.714 11.104 203.957 11.0693 204.165 11C204.373 10.9253 204.546 10.8267 204.685 10.704C204.824 10.5813 204.925 10.44 204.989 10.28C205.058 10.12 205.093 9.94933 205.093 9.768C205.093 9.544 205.032 9.36 204.909 9.216C204.792 9.06667 204.634 8.94133 204.437 8.84C204.24 8.73333 204.013 8.64267 203.757 8.568C203.506 8.488 203.248 8.40533 202.981 8.32C202.72 8.23467 202.461 8.13867 202.205 8.032C201.954 7.92 201.73 7.78133 201.533 7.616C201.336 7.45067 201.176 7.248 201.053 7.008C200.936 6.76267 200.877 6.46667 200.877 6.12C200.877 5.81067 200.941 5.51467 201.069 5.232C201.197 4.944 201.384 4.69333 201.629 4.48C201.874 4.26133 202.176 4.088 202.533 3.96C202.89 3.832 203.298 3.768 203.757 3.768C204.29 3.768 204.768 3.85333 205.189 4.024C205.616 4.18933 205.984 4.41867 206.293 4.712L205.973 5.232ZM213.599 7.064C213.599 6.73333 213.551 6.432 213.455 6.16C213.364 5.88267 213.228 5.64533 213.047 5.448C212.871 5.24533 212.655 5.09067 212.399 4.984C212.143 4.872 211.852 4.816 211.527 4.816C210.844 4.816 210.303 5.016 209.903 5.416C209.508 5.81067 209.263 6.36 209.167 7.064H213.599ZM214.751 10.864C214.575 11.0773 214.364 11.264 214.119 11.424C213.874 11.5787 213.61 11.7067 213.327 11.808C213.05 11.9093 212.762 11.984 212.463 12.032C212.164 12.0853 211.868 12.112 211.575 12.112C211.015 12.112 210.498 12.0187 210.023 11.832C209.554 11.64 209.146 11.3627 208.799 11C208.458 10.632 208.191 10.1787 207.999 9.64C207.807 9.10133 207.711 8.48267 207.711 7.784C207.711 7.21867 207.796 6.69067 207.967 6.2C208.143 5.70933 208.394 5.28533 208.719 4.928C209.044 4.56533 209.442 4.28267 209.911 4.08C210.38 3.872 210.908 3.768 211.495 3.768C211.98 3.768 212.428 3.85067 212.839 4.016C213.255 4.176 213.612 4.41067 213.911 4.72C214.215 5.024 214.452 5.40267 214.623 5.856C214.794 6.304 214.879 6.816 214.879 7.392C214.879 7.616 214.855 7.76533 214.807 7.84C214.759 7.91467 214.668 7.952 214.535 7.952H209.119C209.135 8.464 209.204 8.90933 209.327 9.288C209.455 9.66667 209.631 9.984 209.855 10.24C210.079 10.4907 210.346 10.68 210.655 10.808C210.964 10.9307 211.311 10.992 211.695 10.992C212.052 10.992 212.359 10.952 212.615 10.872C212.876 10.7867 213.1 10.696 213.287 10.6C213.474 10.504 213.628 10.416 213.751 10.336C213.879 10.2507 213.988 10.208 214.079 10.208C214.196 10.208 214.287 10.2533 214.351 10.344L214.751 10.864ZM217.98 5.52C218.236 4.96533 218.551 4.53333 218.924 4.224C219.297 3.90933 219.753 3.752 220.292 3.752C220.463 3.752 220.625 3.77067 220.78 3.808C220.94 3.84533 221.081 3.904 221.204 3.984L221.1 5.048C221.068 5.18133 220.988 5.248 220.86 5.248C220.785 5.248 220.676 5.232 220.532 5.2C220.388 5.168 220.225 5.152 220.044 5.152C219.788 5.152 219.559 5.18933 219.356 5.264C219.159 5.33867 218.98 5.45067 218.82 5.6C218.665 5.744 218.524 5.92533 218.396 6.144C218.273 6.35733 218.161 6.60267 218.06 6.88V12H216.628V3.896H217.444C217.599 3.896 217.705 3.92533 217.764 3.984C217.823 4.04267 217.863 4.144 217.884 4.288L217.98 5.52ZM229.4 3.896L226.096 12H224.816L221.512 3.896H222.672C222.789 3.896 222.885 3.92533 222.96 3.984C223.035 4.04267 223.085 4.112 223.112 4.192L225.168 9.408C225.232 9.60533 225.288 9.79733 225.336 9.984C225.384 10.1707 225.429 10.3573 225.472 10.544C225.515 10.3573 225.56 10.1707 225.608 9.984C225.656 9.79733 225.715 9.60533 225.784 9.408L227.864 4.192C227.896 4.10667 227.949 4.03733 228.024 3.984C228.099 3.92533 228.187 3.896 228.288 3.896H229.4ZM235.911 7.064C235.911 6.73333 235.863 6.432 235.767 6.16C235.677 5.88267 235.541 5.64533 235.359 5.448C235.183 5.24533 234.967 5.09067 234.711 4.984C234.455 4.872 234.165 4.816 233.839 4.816C233.157 4.816 232.615 5.016 232.215 5.416C231.821 5.81067 231.575 6.36 231.479 7.064H235.911ZM237.063 10.864C236.887 11.0773 236.677 11.264 236.431 11.424C236.186 11.5787 235.922 11.7067 235.639 11.808C235.362 11.9093 235.074 11.984 234.775 12.032C234.477 12.0853 234.181 12.112 233.887 12.112C233.327 12.112 232.81 12.0187 232.335 11.832C231.866 11.64 231.458 11.3627 231.111 11C230.77 10.632 230.503 10.1787 230.311 9.64C230.119 9.10133 230.023 8.48267 230.023 7.784C230.023 7.21867 230.109 6.69067 230.279 6.2C230.455 5.70933 230.706 5.28533 231.031 4.928C231.357 4.56533 231.754 4.28267 232.223 4.08C232.693 3.872 233.221 3.768 233.807 3.768C234.293 3.768 234.741 3.85067 235.151 4.016C235.567 4.176 235.925 4.41067 236.223 4.72C236.527 5.024 236.765 5.40267 236.935 5.856C237.106 6.304 237.191 6.816 237.191 7.392C237.191 7.616 237.167 7.76533 237.119 7.84C237.071 7.91467 236.981 7.952 236.847 7.952H231.431C231.447 8.464 231.517 8.90933 231.639 9.288C231.767 9.66667 231.943 9.984 232.167 10.24C232.391 10.4907 232.658 10.68 232.967 10.808C233.277 10.9307 233.623 10.992 234.007 10.992C234.365 10.992 234.671 10.952 234.927 10.872C235.189 10.7867 235.413 10.696 235.599 10.6C235.786 10.504 235.941 10.416 236.063 10.336C236.191 10.2507 236.301 10.208 236.391 10.208C236.509 10.208 236.599 10.2533 236.663 10.344L237.063 10.864ZM244.221 5.824C243.954 5.46667 243.666 5.21867 243.357 5.08C243.047 4.936 242.701 4.864 242.317 4.864C241.565 4.864 240.986 5.13333 240.581 5.672C240.175 6.21067 239.973 6.97867 239.973 7.976C239.973 8.504 240.018 8.95733 240.109 9.336C240.199 9.70933 240.333 10.0187 240.509 10.264C240.685 10.504 240.901 10.68 241.157 10.792C241.413 10.904 241.703 10.96 242.029 10.96C242.498 10.96 242.906 10.8533 243.253 10.64C243.605 10.4267 243.927 10.1253 244.221 9.736V5.824ZM245.645 0.216V12H244.797C244.594 12 244.466 11.9013 244.413 11.704L244.285 10.72C243.938 11.136 243.543 11.472 243.101 11.728C242.658 11.984 242.146 12.112 241.565 12.112C241.101 12.112 240.679 12.024 240.301 11.848C239.922 11.6667 239.599 11.4027 239.333 11.056C239.066 10.7093 238.861 10.2773 238.717 9.76C238.573 9.24267 238.501 8.648 238.501 7.976C238.501 7.37867 238.581 6.824 238.741 6.312C238.901 5.79467 239.13 5.34667 239.429 4.968C239.727 4.58933 240.093 4.29333 240.525 4.08C240.962 3.86133 241.453 3.752 241.997 3.752C242.493 3.752 242.917 3.83733 243.269 4.008C243.626 4.17333 243.943 4.40533 244.221 4.704V0.216H245.645ZM247.654 11.12C247.654 10.9813 247.678 10.8507 247.726 10.728C247.779 10.6053 247.848 10.4987 247.934 10.408C248.024 10.3173 248.131 10.2453 248.254 10.192C248.376 10.1387 248.507 10.112 248.646 10.112C248.784 10.112 248.915 10.1387 249.038 10.192C249.16 10.2453 249.267 10.3173 249.358 10.408C249.448 10.4987 249.52 10.6053 249.574 10.728C249.627 10.8507 249.654 10.9813 249.654 11.12C249.654 11.264 249.627 11.3973 249.574 11.52C249.52 11.6373 249.448 11.7413 249.358 11.832C249.267 11.9227 249.16 11.992 249.038 12.04C248.915 12.0933 248.784 12.12 248.646 12.12C248.507 12.12 248.376 12.0933 248.254 12.04C248.131 11.992 248.024 11.9227 247.934 11.832C247.848 11.7413 247.779 11.6373 247.726 11.52C247.678 11.3973 247.654 11.264 247.654 11.12Z" fill="#FBFBFB"/>
</svg>
